<?xml version="1.0" encoding="UTF-8" standalone="no"?>
<!-- Created with Inkscape (http://www.inkscape.org/) -->

<svg
   xmlns:dc="http://purl.org/dc/elements/1.1/"
   xmlns:cc="http://creativecommons.org/ns#"
   xmlns:rdf="http://www.w3.org/1999/02/22-rdf-syntax-ns#"
   xmlns:svg="http://www.w3.org/2000/svg"
   xmlns="http://www.w3.org/2000/svg"
   xmlns:xlink="http://www.w3.org/1999/xlink"
   xmlns:sodipodi="http://sodipodi.sourceforge.net/DTD/sodipodi-0.dtd"
   xmlns:inkscape="http://www.inkscape.org/namespaces/inkscape"
   width="3604.9731"
   height="1134.5996"
   id="svg2"
   version="1.1"
   inkscape:version="0.48.4 r9939"
   sodipodi:docname="podling.svg"
   inkscape:export-filename="/svn/podling.png"
   inkscape:export-xdpi="67.940002"
   inkscape:export-ydpi="67.940002">
  <defs
     id="defs4">
    <linearGradient
       id="linearGradient3860">
      <stop
         style="stop-color:#3f3f3f;stop-opacity:1;"
         offset="0"
         id="stop3862" />
      <stop
         style="stop-color:#616161;stop-opacity:1;"
         offset="1"
         id="stop3864" />
    </linearGradient>
    <inkscape:perspective
       sodipodi:type="inkscape:persp3d"
       inkscape:vp_x="0 : 526.18109 : 1"
       inkscape:vp_y="0 : 1000 : 0"
       inkscape:vp_z="744.09448 : 526.18109 : 1"
       inkscape:persp3d-origin="372.04724 : 350.78739 : 1"
       id="perspective3842" />
    <linearGradient
       id="linearGradient3759">
      <stop
         style="stop-color:#2c4ea0;stop-opacity:1;"
         offset="0"
         id="stop3761" />
      <stop
         style="stop-color:#2b3b62;stop-opacity:1;"
         offset="1"
         id="stop3763" />
    </linearGradient>
    <linearGradient
       id="SVGID_1_-1"
       gradientUnits="userSpaceOnUse"
       x1="-6873.6479"
       y1="2774.2998"
       x2="-6636.2373"
       y2="2496.6895"
       gradientTransform="matrix(0.19520961,-0.51334883,-0.46963511,-0.18306873,3010.8531,-2959.8332)">
      <stop
         offset="0"
         style="stop-color:#F59723"
         id="stop3172-1" />
      <stop
         offset="0.3123"
         style="stop-color:#F69822"
         id="stop3174-7" />
      <stop
         offset="0.8383"
         style="stop-color:#E87726"
         id="stop3176-5" />
    </linearGradient>
    <linearGradient
       id="SVGID_2_-5"
       gradientUnits="userSpaceOnUse"
       x1="-9051.5264"
       y1="2778.53"
       x2="-6936.9253"
       y2="2804.9607"
       gradientTransform="matrix(0.19520961,-0.51334883,-0.46963511,-0.18306873,3010.8531,-2959.8332)">
      <stop
         offset="0.3233"
         style="stop-color:#9C2063"
         id="stop3197-7" />
      <stop
         offset="0.59065992"
         style="stop-color:#C82037"
         id="stop3199-1" />
      <stop
         offset="0.81119841"
         style="stop-color:#CC2135"
         id="stop3201-8" />
      <stop
         offset="1"
         style="stop-color:#E87726"
         id="stop3203-9" />
    </linearGradient>
    <linearGradient
       id="SVGID_3_-5"
       gradientUnits="userSpaceOnUse"
       x1="-8426.2559"
       y1="2635.2839"
       x2="-7416.9194"
       y2="2635.2839"
       gradientTransform="matrix(0.19520961,-0.51334883,-0.46963511,-0.18306873,3010.8531,-2959.8332)">
      <stop
         offset="0"
         style="stop-color:#282661"
         id="stop3208-7" />
      <stop
         offset="9.548389e-02"
         style="stop-color:#662E8C"
         id="stop3210-6" />
      <stop
         offset="0.7882"
         style="stop-color:#9E2064"
         id="stop3212-5" />
      <stop
         offset="0.9487"
         style="stop-color:#CC2032"
         id="stop3214-2" />
    </linearGradient>
    <linearGradient
       id="SVGID_4_-6"
       gradientUnits="userSpaceOnUse"
       x1="-8535.5879"
       y1="2820.8604"
       x2="-6841.793"
       y2="2820.8604"
       gradientTransform="matrix(0.19520961,-0.51334883,-0.46963511,-0.18306873,3010.8531,-2959.8332)">
      <stop
         offset="0.3233"
         style="stop-color:#9C2063"
         id="stop3219-5" />
      <stop
         offset="0.6302"
         style="stop-color:#C82037"
         id="stop3221-0" />
      <stop
         offset="0.7514"
         style="stop-color:#CC2135"
         id="stop3223-0" />
      <stop
         offset="1"
         style="stop-color:#E87726"
         id="stop3225-9" />
    </linearGradient>
    <linearGradient
       id="SVGID_5_-7"
       gradientUnits="userSpaceOnUse"
       x1="-8412.0576"
       y1="2797.8789"
       x2="-7521.9175"
       y2="2797.8789"
       gradientTransform="matrix(0.19520961,-0.51334883,-0.46963511,-0.18306873,3010.8531,-2959.8332)">
      <stop
         offset="0"
         style="stop-color:#282661"
         id="stop3230-0" />
      <stop
         offset="9.548389e-02"
         style="stop-color:#662E8C"
         id="stop3232-7" />
      <stop
         offset="0.7882"
         style="stop-color:#9E2064"
         id="stop3234-1" />
      <stop
         offset="0.9487"
         style="stop-color:#CC2032"
         id="stop3236-4" />
    </linearGradient>
    <linearGradient
       id="SVGID_6_-6"
       gradientUnits="userSpaceOnUse"
       x1="-8535.5879"
       y1="2645.4897"
       x2="-6841.793"
       y2="2645.4897"
       gradientTransform="matrix(0.19520961,-0.51334883,-0.46963511,-0.18306873,3010.8531,-2959.8332)">
      <stop
         offset="0.3233"
         style="stop-color:#9C2063"
         id="stop3241-7" />
      <stop
         offset="0.6302"
         style="stop-color:#C82037"
         id="stop3243-0" />
      <stop
         offset="0.7514"
         style="stop-color:#CC2135"
         id="stop3245-7" />
      <stop
         offset="1"
         style="stop-color:#E87726"
         id="stop3247-0" />
    </linearGradient>
    <linearGradient
       id="SVGID_7_-5"
       gradientUnits="userSpaceOnUse"
       x1="-8640.6592"
       y1="2654.2649"
       x2="-6946.8647"
       y2="2654.2649"
       gradientTransform="matrix(0.19520961,-0.51334883,-0.46963511,-0.18306873,3010.8531,-2959.8332)">
      <stop
         offset="0.3233"
         style="stop-color:#9C2063"
         id="stop3252-6" />
      <stop
         offset="0.6302"
         style="stop-color:#C82037"
         id="stop3254-3" />
      <stop
         offset="0.7514"
         style="stop-color:#CC2135"
         id="stop3256-6" />
      <stop
         offset="1"
         style="stop-color:#E87726"
         id="stop3258-5" />
    </linearGradient>
    <linearGradient
       id="SVGID_8_-0"
       gradientUnits="userSpaceOnUse"
       x1="-8535.5889"
       y1="2593.446"
       x2="-6841.7925"
       y2="2593.446"
       gradientTransform="matrix(0.19520961,-0.51334883,-0.46963511,-0.18306873,3010.8531,-2959.8332)">
      <stop
         offset="0.3233"
         style="stop-color:#9C2063"
         id="stop3267-2" />
      <stop
         offset="0.6302"
         style="stop-color:#C82037"
         id="stop3269-4" />
      <stop
         offset="0.7514"
         style="stop-color:#CC2135"
         id="stop3271-1" />
      <stop
         offset="1"
         style="stop-color:#E87726"
         id="stop3273-0" />
    </linearGradient>
    <linearGradient
       id="SVGID_9_-4"
       gradientUnits="userSpaceOnUse"
       x1="-8535.5889"
       y1="2599.3242"
       x2="-6841.7925"
       y2="2599.3242"
       gradientTransform="matrix(0.19520961,-0.51334883,-0.46963511,-0.18306873,3010.8531,-2959.8332)">
      <stop
         offset="0.3233"
         style="stop-color:#9C2063"
         id="stop3282-7" />
      <stop
         offset="0.6302"
         style="stop-color:#C82037"
         id="stop3284-9" />
      <stop
         offset="0.7514"
         style="stop-color:#CC2135"
         id="stop3286-2" />
      <stop
         offset="1"
         style="stop-color:#E87726"
         id="stop3288-2" />
    </linearGradient>
    <linearGradient
       y2="2600.5515"
       x2="-7209.6543"
       y1="2600.5515"
       x1="-7584.0386"
       gradientTransform="matrix(0.30917301,-0.44919208,-0.40382667,-0.30865458,3252.9789,-2455.1996)"
       gradientUnits="userSpaceOnUse"
       id="linearGradient6581"
       xlink:href="#SVGID_10_-8"
       inkscape:collect="always" />
    <linearGradient
       id="SVGID_10_-8"
       gradientUnits="userSpaceOnUse"
       x1="-7584.0386"
       y1="2600.5515"
       x2="-7209.6543"
       y2="2600.5515"
       gradientTransform="matrix(0.4345,-0.9318,-0.9318,-0.4345,6223.4761,-5052.7427)">
      <stop
         offset="0.3233"
         style="stop-color:#9C2063"
         id="stop3297-9" />
      <stop
         offset="0.6302"
         style="stop-color:#C82037"
         id="stop3299-2" />
      <stop
         offset="0.7514"
         style="stop-color:#CC2135"
         id="stop3301-1" />
      <stop
         offset="1"
         style="stop-color:#E87726"
         id="stop3303-9" />
    </linearGradient>
    <filter
       id="filter4968"
       inkscape:label="Drop Shadow"
       color-interpolation-filters="sRGB">
      <feFlood
         id="feFlood4970"
         flood-opacity="0.5"
         flood-color="rgb(0,0,0)"
         result="flood" />
      <feComposite
         id="feComposite4972"
         in2="SourceGraphic"
         in="flood"
         operator="in"
         result="composite1" />
      <feGaussianBlur
         id="feGaussianBlur4974"
         stdDeviation="1"
         result="blur" />
      <feOffset
         id="feOffset4976"
         dx="1.7"
         dy="1.7"
         result="offset" />
      <feComposite
         id="feComposite4978"
         in2="offset"
         in="SourceGraphic"
         operator="over"
         result="composite2" />
    </filter>
    <linearGradient
       inkscape:collect="always"
       xlink:href="#SVGID_1_-1"
       id="linearGradient5134"
       gradientUnits="userSpaceOnUse"
       gradientTransform="matrix(0.19520961,-0.51334883,-0.46963511,-0.18306873,2776.7213,-3146.4691)"
       x1="-6873.6479"
       y1="2774.2998"
       x2="-6636.2373"
       y2="2496.6895" />
    <linearGradient
       inkscape:collect="always"
       xlink:href="#SVGID_2_-5"
       id="linearGradient5136"
       gradientUnits="userSpaceOnUse"
       gradientTransform="matrix(0.19520961,-0.51334883,-0.46963511,-0.18306873,2776.7213,-3146.4691)"
       x1="-9051.5264"
       y1="2778.53"
       x2="-6936.9253"
       y2="2804.9607" />
    <linearGradient
       inkscape:collect="always"
       xlink:href="#SVGID_3_-5"
       id="linearGradient5138"
       gradientUnits="userSpaceOnUse"
       gradientTransform="matrix(0.19520961,-0.51334883,-0.46963511,-0.18306873,2776.7213,-3146.4691)"
       x1="-8426.2559"
       y1="2635.2839"
       x2="-7416.9194"
       y2="2635.2839" />
    <linearGradient
       inkscape:collect="always"
       xlink:href="#SVGID_4_-6"
       id="linearGradient5140"
       gradientUnits="userSpaceOnUse"
       gradientTransform="matrix(0.19520961,-0.51334883,-0.46963511,-0.18306873,2776.7213,-3146.4691)"
       x1="-8535.5879"
       y1="2820.8604"
       x2="-6841.793"
       y2="2820.8604" />
    <linearGradient
       inkscape:collect="always"
       xlink:href="#SVGID_5_-7"
       id="linearGradient5142"
       gradientUnits="userSpaceOnUse"
       gradientTransform="matrix(0.19520961,-0.51334883,-0.46963511,-0.18306873,2776.7213,-3146.4691)"
       x1="-8412.0576"
       y1="2797.8789"
       x2="-7521.9175"
       y2="2797.8789" />
    <linearGradient
       inkscape:collect="always"
       xlink:href="#SVGID_6_-6"
       id="linearGradient5144"
       gradientUnits="userSpaceOnUse"
       gradientTransform="matrix(0.19520961,-0.51334883,-0.46963511,-0.18306873,2776.7213,-3146.4691)"
       x1="-8535.5879"
       y1="2645.4897"
       x2="-6841.793"
       y2="2645.4897" />
    <linearGradient
       inkscape:collect="always"
       xlink:href="#SVGID_7_-5"
       id="linearGradient5146"
       gradientUnits="userSpaceOnUse"
       gradientTransform="matrix(0.19520961,-0.51334883,-0.46963511,-0.18306873,2776.7213,-3146.4691)"
       x1="-8640.6592"
       y1="2654.2649"
       x2="-6946.8647"
       y2="2654.2649" />
    <linearGradient
       inkscape:collect="always"
       xlink:href="#SVGID_8_-0"
       id="linearGradient5148"
       gradientUnits="userSpaceOnUse"
       gradientTransform="matrix(0.19520961,-0.51334883,-0.46963511,-0.18306873,2776.7213,-3146.4691)"
       x1="-8535.5889"
       y1="2593.446"
       x2="-6841.7925"
       y2="2593.446" />
    <linearGradient
       inkscape:collect="always"
       xlink:href="#SVGID_9_-4"
       id="linearGradient5150"
       gradientUnits="userSpaceOnUse"
       gradientTransform="matrix(0.19520961,-0.51334883,-0.46963511,-0.18306873,2776.7213,-3146.4691)"
       x1="-8535.5889"
       y1="2599.3242"
       x2="-6841.7925"
       y2="2599.3242" />
    <linearGradient
       inkscape:collect="always"
       xlink:href="#SVGID_10_-8"
       id="linearGradient5152"
       gradientUnits="userSpaceOnUse"
       gradientTransform="matrix(0.19520961,-0.51334883,-0.46963511,-0.18306873,2776.7213,-3146.4691)"
       x1="-7584.0386"
       y1="2600.5515"
       x2="-7209.6543"
       y2="2600.5515" />
  </defs>
  <sodipodi:namedview
     id="base"
     pagecolor="#ffffff"
     bordercolor="#666666"
     borderopacity="1.0"
     inkscape:pageopacity="0.0"
     inkscape:pageshadow="2"
     inkscape:zoom="0.23447251"
     inkscape:cx="2202.2039"
     inkscape:cy="213.6118"
     inkscape:document-units="px"
     inkscape:current-layer="layer1"
     showgrid="false"
     inkscape:window-width="3754"
     inkscape:window-height="2124"
     inkscape:window-x="86"
     inkscape:window-y="36"
     inkscape:window-maximized="1"
     fit-margin-top="0"
     fit-margin-left="0"
     fit-margin-right="0"
     fit-margin-bottom="0" />
  <metadata
     id="metadata7">
    <rdf:RDF>
      <cc:Work
         rdf:about="">
        <dc:format>image/svg+xml</dc:format>
        <dc:type
           rdf:resource="http://purl.org/dc/dcmitype/StillImage" />
        <dc:title></dc:title>
      </cc:Work>
    </rdf:RDF>
  </metadata>
  <g
     inkscape:label="Layer 1"
     inkscape:groupmode="layer"
     id="layer1"
     transform="translate(140.38733,93.233293)">
    <path
       sodipodi:type="arc"
       style="fill:#ffffff;fill-opacity:1;fill-rule:nonzero;stroke:none"
       id="path14584"
       sodipodi:cx="180.1917"
       sodipodi:cy="312.54163"
       sodipodi:rx="355.05228"
       sodipodi:ry="404.09854"
       d="m 535.24397,312.54163 a 355.05228,404.09854 0 1 1 -710.10455,0 355.05228,404.09854 0 1 1 710.10455,0 z"
       transform="matrix(0.95551483,0.29494306,-0.39221979,1.2706582,254.63687,25.98821)" />
    <g
       id="g14515"
       transform="matrix(1.1427588,0,0,1.1427588,-175.23438,1411.3293)">
      <path
         style="fill:#f9f9f9"
         d="m 375.90383,-323.969 c -31.66392,-2.7468 -50.65345,-5.6843 -74.0918,-11.4613 -80.70148,-19.8912 -147.64641,-59.55774 -194.38134,-115.17592 -38.749009,-46.11431 -64.072369,-104.52146 -72.956649,-168.27108 -5.76932,-41.39808 -5.2606,-87.26568 1.48622,-134 22.177,-153.61728 111.876339,-327.8538 227.077389,-441.0866 23.71299,-23.3078 34.16575,-32.5582 54.86618,-48.5552 43.77883,-33.8316 92.02015,-58.2526 134,-67.8344 24.41628,-5.5729 39.94235,-7.0328 62.64643,-5.8907 79.8671,4.0176 148.41503,57.8475 195.30006,153.3669 33.17227,67.5822 53.26153,147.6369 61.23037,244 2.05793,24.88537 1.75315,109.67744 -0.48164,134 -8.15886,88.79772 -25.09772,161.21355 -53.44203,228.47173 -16.57472,39.33012 -39.82643,78.72749 -64.64189,109.52827 -10.13283,12.5768 -34.29003,37.35629 -46.1113,47.29913 -50.13706,42.17017 -106.94694,66.54257 -173,74.21997 -9.39462,1.092 -49.70078,2.0657 -57.5,1.3892 z m 43.18187,-352.50109 c 19.75327,-10.07736 36.94179,-46.98743 36.97886,-79.40721 0.0253,-22.16225 -9.15477,-39.5 -20.91473,-39.5 -4.87908,0 -12.81151,4.78066 -19.11711,11.52137 -26.04617,27.84344 -34.39916,85.94119 -14.96652,104.09695 6.44473,6.02126 11.02498,6.85724 18.0195,3.28889 z M 277.40383,-1115.413 c 8.8,-9.0947 20.0659,-21.0197 25.03534,-26.5 l 9.03533,-9.9643 -1.3066,-3.8937 c -2.54915,-7.5965 -4.0495,-8.7413 -12.13538,-9.259 -11.32824,-0.7253 -15.53491,1.1297 -26.10881,11.5134 -10.01196,9.8318 -15.85475,18.2862 -18.50646,26.7787 -1.00646,3.2233 -2.42354,6.7786 -3.14906,7.9006 -1.91645,2.9636 0.012,9.1265 4.22508,13.5022 1.87581,1.9481 3.41056,4.0481 3.41056,4.6666 0,1.0645 1.92037,2.3177 3,1.9579 0.275,-0.092 7.7,-7.6078 16.5,-16.7024 z"
         id="path14561"
         inkscape:connector-curvature="0" />
      <path
         style="fill:#f7f7f7"
         d="m 370.40383,-325.0216 c -1.65,-0.1895 -7.95,-0.8351 -14,-1.4346 -52.38288,-5.1911 -111.62908,-23.7929 -156.5648,-49.15725 C 104.05514,-429.67959 47.038291,-516.6073 33.392521,-629.3773 c -2.23675,-18.48469 -3.05788,-60.54739 -1.58247,-81.06253 14.40184,-200.25305 145.860279,-434.71847 306.226559,-546.17677 79.4252,-55.2023 159.34052,-72.6818 226.7885,-49.6042 67.08525,22.9534 122.80298,84.98 160.04839,178.1703 46.8332,117.1797 60.25703,272.79526 35.94337,416.6732 -32.36951,191.54905 -122.85311,322.75819 -254.41304,368.9212 -24.32292,8.5347 -53.21206,14.7546 -79,17.0091 -10.96061,0.9582 -49.83581,1.2484 -57,0.4254 z m 40.13186,-289.19469 c 43.36521,-14.98805 82.94195,-98.64622 80.02615,-169.16101 -1.78267,-43.11188 -18.2055,-71.8577 -42.1286,-73.74016 -11.91793,-0.9378 -24.16947,5.40677 -39.08434,20.24016 -12.06168,11.99579 -20.16116,23.79524 -29.51641,43 -11.26567,23.12651 -18.90055,49.08571 -22.49946,76.5 -1.98186,15.09659 -1.44142,43.4571 1.03855,54.5 4.17862,18.60666 10.14207,31.11101 19.13723,40.12751 9.74508,9.76821 21.02322,12.68226 33.02688,8.5335 z M 239.31577,-1071.6273 c 2.88039,-2.8875 8.12854,-8.625 11.66256,-12.75 20.47074,-23.894 50.07839,-54.8347 84.6755,-88.488 6.7375,-6.5536 12.25,-12.4631 12.25,-13.1321 0,-2.4953 -1.26779,-4.3799 -2.94647,-4.3799 -0.95288,0 -2.24508,-1.125 -2.87158,-2.5 -0.74791,-1.6415 -1.95173,-2.5 -3.50552,-2.5 -1.30155,0 -3.13936,-0.8541 -4.08403,-1.8979 -2.76805,-3.0587 -21.63685,-4.9584 -23.7661,-2.3928 -0.58915,0.7099 -2.70359,1.2932 -4.69874,1.2963 -4.69118,0.01 -10.85746,1.7309 -11.8499,3.3124 -0.42771,0.6816 -1.78669,1.6764 -3.01995,2.2106 -6.75753,2.9274 -36.84266,33.1853 -53.13526,53.4404 -8.96663,11.1474 -10.1303,13.3737 -12.54902,24.0079 -0.91106,4.0057 -2.2643,8.462 -3.00721,9.903 -1.81483,3.5203 -0.20804,19.1094 2.50651,24.3182 1.06,2.034 1.92727,4.6177 1.92727,5.7415 0,1.1239 0.9,2.6055 2,3.2925 1.1,0.6869 2,1.9657 2,2.8418 0,1.7872 0.87731,2.9261 2.2541,2.9261 0.50642,0 3.27745,-2.3625 6.15784,-5.25 z"
         id="path14559"
         inkscape:connector-curvature="0" />
      <path
         style="fill:#f6f6f6"
         d="m 371.40383,-325.003 c -81.11608,-6.3984 -160.92668,-36.22451 -217.10225,-81.13341 -60.311159,-48.21504 -98.038099,-109.85849 -114.863589,-187.67988 -23.094592,-106.81728 0.85692,-241.15714 67.404659,-378.06101 69.64822,-143.2823 177.98588,-263.9626 282.84985,-315.0744 90.95073,-44.3303 172.75502,-38.1654 240.21133,18.1027 10.2633,8.561 28.05217,27.0006 37.11409,38.4717 53.71052,67.9897 88.89436,168.3513 101.31502,289 5.51601,53.58008 5.51185,117.21699 -0.0113,173 -12.90847,130.37349 -53.90428,244.00936 -115.44472,320 -56.03449,69.19186 -127.0226,109.7077 -212.97309,121.5525 -11.05259,1.5231 -56.84625,2.7411 -68.5,1.8218 z m 39.26344,-269.9375 c 36.13614,-13.60008 71.90278,-70.10773 85.68176,-135.36847 5.73887,-27.18074 7.33274,-58.62646 4.07412,-80.37931 -5.64447,-37.67962 -21.94898,-62.00823 -44.65771,-66.63555 -4.59274,-0.93585 -6.86327,-0.86485 -12.2433,0.38286 -25.70454,5.96128 -51.34391,32.27622 -71.14743,73.02209 -37.51127,77.17968 -37.24469,171.48246 0.57408,203.07914 11.34615,9.47944 23.25624,11.3422 37.71848,5.89924 z m -183.301,-461.8409 c 9.06916,-10.7006 39.89469,-45.8616 46.54904,-53.0959 14.46773,-15.7287 45.0795,-46.5647 59.01943,-59.4518 24.92104,-23.0388 30.10682,-28.0482 29.03554,-28.0482 -0.58655,0 -1.06645,-0.675 -1.06645,-1.5 0,-0.825 -0.79767,-1.5 -1.7726,-1.5 -0.98751,0 -2.57732,-1.4943 -3.58953,-3.3739 -1.69168,-3.1412 -2.34511,-3.4641 -9.47741,-4.6829 -4.21325,-0.72 -9.03257,-2.1179 -10.7096,-3.1064 -2.60452,-1.5352 -3.91688,-1.6552 -9,-0.8229 -3.27297,0.536 -7.97586,0.9818 -10.45086,0.9908 -4.12992,0.015 -5.40465,0.7283 -15.5,8.6738 -24.50725,19.2884 -73.34609,71.93 -83.19355,89.6712 -2.43384,4.3848 -4.61799,12.2847 -4.60343,16.6503 0.0302,9.0665 1.01734,18.609 2.14246,20.7113 0.63498,1.1865 1.15452,3.4671 1.15452,5.068 0,1.6407 0.87262,3.7004 2,4.7207 1.1,0.9955 2,2.4213 2,3.1686 0,0.7472 0.41715,2.1399 0.927,3.095 0.50985,0.955 1.17073,2.5239 1.46862,3.4864 0.75237,2.431 2.6609,2.1846 5.06682,-0.6541 z"
         id="path14557"
         inkscape:connector-curvature="0" />
      <path
         style="fill:#f5f5f5"
         d="m 374.90383,-324.9675 c -90.41627,-7.6019 -167.15629,-36.95326 -227.64942,-87.07085 -11.88445,-9.84607 -34.37527,-32.65068 -43.72884,-44.33895 -27.659389,-34.56331 -49.866979,-79.87082 -61.023959,-124.5 -27.688457,-110.75692 -4.35589,-250.84325 65.457489,-393 42.19575,-85.9207 95.15887,-160.3051 158.06926,-222.0016 61.16141,-59.9813 122.55992,-97.9133 182.87547,-112.9806 51.28154,-12.8105 97.70677,-8.3691 140.48135,13.4396 7.16026,3.6507 16.4476,8.9529 20.63853,11.7828 59.55652,40.2143 106.27294,114.7086 134.36524,214.2598 24.49582,86.80627 33.48167,190.62515 24.97058,288.5 -11.13879,128.09268 -47.67903,238.62839 -104.79198,317 -20.94522,28.74146 -47.64484,56.10308 -74.23253,76.07304 -44.16964,33.17576 -96.71615,54.17946 -152.43119,60.92926 -12.64563,1.532 -52.95094,2.7523 -63,1.9075 z m 34.19671,-244.15327 c 70.20973,-27.37702 126.42107,-177.55633 102.31539,-273.35507 -9.39555,-37.33901 -28.55459,-59.55944 -53.14601,-61.63815 -22.96746,-1.94143 -52.39546,18.56273 -76.17051,53.07232 -39.68021,57.59601 -60.61091,146.64505 -49.63352,211.16437 5.30975,31.2079 18.1101,55.78653 34.83448,66.88754 12.71671,8.44088 26.74533,9.73935 41.80017,3.86899 z m -191.1221,-475.02333 c 1.96603,-2.0533 7.57935,-8.6832 12.47405,-14.7332 40.7068,-50.3149 84.28964,-95.3402 130.45134,-134.769 20.39009,-17.416 21.36076,-18.3383 20.59885,-19.5711 -0.39429,-0.6379 -1.335,-1.1599 -2.09048,-1.1599 -0.75548,0 -1.65924,-0.9 -2.00837,-2 -0.34913,-1.1 -1.43222,-2 -2.40687,-2 -0.97466,0 -2.28468,-1.125 -2.91118,-2.5 -0.65174,-1.4304 -1.97866,-2.5 -3.10149,-2.5 -1.07934,0 -2.22108,-0.4185 -2.53721,-0.93 -0.31612,-0.5115 -3.04863,-1.2391 -6.07223,-1.6169 -3.0236,-0.3778 -5.74306,-1.0843 -6.04325,-1.57 -0.30019,-0.4857 -3.33472,-0.8831 -6.74339,-0.8831 -3.40867,0 -7.63854,-0.4133 -9.3997,-0.9184 -2.91471,-0.8359 -3.76681,-0.4915 -9.4934,3.837 -3.4602,2.6155 -7.2387,5.2597 -8.39666,5.8762 -3.85554,2.0525 -20.71765,16.2436 -35.62866,29.9851 -28.0807,25.8781 -60.52906,62.8716 -78.29076,89.2569 l -5.51924,8.199 -0.54375,12.3046 c -0.42715,9.6659 -0.23009,12.9111 0.91895,15.1331 0.8045,1.5557 1.78273,5.3899 2.17386,8.5204 0.45145,3.6132 1.40202,6.317 2.60306,7.4039 1.04056,0.9417 1.89192,2.5169 1.89192,3.5005 0,1.7799 3.51439,4.9169 5.47251,4.8849 0.56512,-0.01 2.63606,-1.6968 4.6021,-3.75 z"
         id="path14555"
         inkscape:connector-curvature="0" />
      <path
         style="fill:#f3f3f3"
         d="m 373.40383,-325.4394 c -43.67496,-2.7983 -94.77165,-14.9022 -135.13378,-32.0108 -77.91995,-33.02846 -135.49629,-85.43876 -170.229289,-154.95544 -35.94668,-71.94579 -45.6518,-156.71805 -29.07584,-253.97166 6.13574,-35.99929 13.53617,-65.03028 26.38369,-103.5 41.283829,-123.61743 113.898439,-241.3507 201.684499,-327 93.74865,-91.4668 190.96324,-132.11 275.19845,-115.0543 103.15385,20.8863 182.73325,131.4774 215.55403,299.5543 15.32515,78.48089 18.59652,171.02703 9.03153,255.5 -14.50953,128.14067 -54.59263,235.095 -116.74033,311.5 -11.8706,14.59384 -39.45176,41.77157 -53.0756,52.29928 -54.30363,41.96272 -111.27526,63.43722 -179.59736,67.69622 -17.65442,1.1005 -26.09685,1.0895 -44,-0.058 z m 26,-216.54648 c 7.86847,-1.87992 20.2712,-7.92135 29,-14.12603 43.05449,-30.60436 81.74958,-102.97236 96.38771,-180.26539 4.74334,-25.04603 5.55084,-34.39993 5.56812,-64.5 0.0149,-25.97865 -0.22441,-30.34203 -2.29721,-41.88126 -5.82477,-32.42633 -16.37693,-55.84393 -31.88511,-70.76021 -11.27923,-10.84873 -22.44574,-15.85853 -35.34762,-15.85853 -19.22403,0 -39.3658,10.49029 -60.48125,31.5 -18.47636,18.38383 -32.31493,38.68492 -47.03499,69 -41.85308,86.19394 -49.99957,191.78593 -19.32624,250.5 10.19734,19.51947 23.64772,31.75969 39.9593,36.36408 9.42204,2.65962 14.41737,2.66499 25.45729,0.0273 z M 205.92111,-1027.6099 c 1.3655,-1.3164 8.41084,-10.015 15.65633,-19.3304 42.55962,-54.718 90.79155,-105.4725 136.36652,-143.4987 11.12296,-9.2807 33.39397,-26.9895 42.48485,-33.7819 4.91589,-3.673 5.50686,-5.0738 2.47502,-5.8667 -1.1,-0.2876 -2,-0.9205 -2,-1.4063 0,-0.4859 -1.36412,-0.8834 -3.03138,-0.8834 -1.77208,0 -3.27051,-0.6231 -3.60699,-1.5 -0.31659,-0.825 -1.44159,-1.5 -2.5,-1.5 -1.05842,0 -2.18342,-0.675 -2.5,-1.5 -0.31659,-0.825 -1.65246,-1.5 -2.96862,-1.5 -1.31615,0 -2.39301,-0.45 -2.39301,-1 0,-0.55 -1.09844,-1 -2.44098,-1 -1.34254,0 -2.7191,-0.45 -3.05902,-1 -0.33992,-0.55 -1.68992,-1 -3,-1 -1.31008,0 -2.62935,-0.4003 -2.93171,-0.8895 -0.30237,-0.4892 -2.24142,-1.1774 -4.30902,-1.5292 -2.0676,-0.3518 -5.18746,-0.8968 -6.93302,-1.211 -2.45505,-0.4419 -4.15342,0.089 -7.5,2.3437 -2.37944,1.6033 -6.35125,4.0778 -8.82625,5.4989 -10.64237,6.1108 -34.27915,24.6958 -54.5,42.8521 -34.05363,30.5768 -74.47602,77.4124 -97.02953,112.4238 -6.7536,10.4841 -8.02298,14.6856 -6.09551,20.1757 0.74063,2.1095 1.38382,6.6481 1.42931,10.0858 0.0519,3.9193 0.66317,7.079 1.63922,8.4725 0.85608,1.2222 1.55651,3.1773 1.55651,4.3447 0,1.1674 0.9,2.937 2,3.9325 1.1,0.9955 2,2.8652 2,4.155 0,1.2897 0.45,2.345 1,2.345 0.55,0 1,0.8734 1,1.941 0,1.0675 0.45,2.2191 1,2.559 0.55,0.3399 1.00297,1.604 1.00659,2.809 0.006,2.0748 0.1,2.0494 1.76728,-0.4787 0.96838,-1.4683 2.87792,-3.7466 4.24341,-5.0629 z"
         id="path14553"
         inkscape:connector-curvature="0" />
      <path
         style="fill:#efefef"
         d="m 369.90383,-326.0277 c -27.21535,-2.5682 -45.44274,-5.4437 -66,-10.4117 -127.8663,-30.90137 -217.837949,-109.24631 -254.300179,-221.4379 -12.82579,-39.464 -18.12045,-75.02909 -18.01355,-121 0.0647,-27.8337 1.45613,-46.95973 5.38348,-74 26.55126,-182.80877 145.673319,-387.1741 287.430249,-493.1143 48.04068,-35.9025 97.90042,-58.9819 144.5,-66.8869 13.16827,-2.2338 44.2315,-3.0878 56.64009,-1.5571 37.00366,4.5645 70.23277,18.9082 100.85991,43.5371 70.64179,56.8068 121.00868,168.4483 138.96335,308.0212 5.02286,39.04582 5.99064,56.51375 6.01123,108.5 0.019,47.90265 -0.37754,56.84874 -4.05556,91.5 -12.79315,120.52622 -49.23395,225.51732 -104.29893,300.5 -17.67023,24.06178 -42.19075,49.86599 -63.66017,66.9929 -50.30357,40.1289 -107.06992,63.0338 -170.95992,68.9814 -9.96796,0.928 -49.92737,1.1843 -58.5,0.3753 z M 395.624,-500.43361 c 4.10868,-1.05082 11.58996,-3.94691 16.62508,-6.43576 43.29266,-21.39943 85.28767,-77.46813 112.40841,-150.07956 32.44744,-86.87282 39.11079,-179.63204 17.55848,-244.42837 -11.79491,-35.46102 -31.63049,-59.19282 -56.33616,-67.40205 -19.47739,-6.47197 -41.03162,-1.92989 -64.64928,13.62342 -62.97732,41.47342 -114.98388,148.04737 -127.50024,261.27863 -1.99157,18.01701 -1.70151,64.71875 0.49998,80.5 9.10864,65.29497 35.63615,106.72569 73.31352,114.50125 8.11873,1.67548 17.46648,1.15697 28.08021,-1.55756 z M 185.47608,-998.14533 c 1.68974,-2.05257 7.98514,-10.48197 13.98976,-18.73197 63.23231,-86.8774 130.9942,-156.2334 200.43799,-205.1532 11.49435,-8.0972 29.08148,-19.8866 35.89023,-24.0587 4.4139,-2.7047 4.80351,-5.6512 0.80786,-6.1095 -1.87729,-0.2154 -3.10661,-1.1229 -3.72525,-2.75 -0.50784,-1.3357 -1.6236,-2.4286 -2.47947,-2.4286 -0.85588,0 -1.81516,-0.675 -2.13174,-1.5 -0.31659,-0.825 -1.42746,-1.5 -2.46862,-1.5 -1.04115,0 -1.89301,-0.4611 -1.89301,-1.0248 0,-0.5636 -1.125,-1.4524 -2.5,-1.9752 -1.375,-0.5228 -2.5,-1.3216 -2.5,-1.7752 0,-0.4535 -2.8125,-1.4023 -6.25,-2.1084 -3.4375,-0.7061 -6.97321,-1.9327 -7.85714,-2.7258 -1.40565,-1.2612 -2.15787,-1.2055 -6,0.4441 -18.49527,7.9411 -41.04044,20.9549 -60.86881,35.1353 -33.71501,24.1116 -70.30311,58.0201 -100.39467,93.0421 -26.42053,30.7495 -55.69458,71.2288 -67.24741,92.9879 -3.60497,6.7897 -3.90917,7.9262 -3.21223,12 0.42341,2.475 1.06176,6.3 1.41855,8.5 0.3568,2.2 0.995,4.45 1.41824,5 0.42324,0.55 1.08707,3.362 1.47518,6.2489 0.38811,2.8869 1.1135,5.5009 1.61197,5.809 0.49848,0.3081 0.90632,1.6727 0.90632,3.0325 0,1.3598 0.675,2.7314 1.5,3.048 0.825,0.3166 1.5,1.6524 1.5,2.9686 0,1.3161 0.45,2.393 1,2.393 0.55,0 1,0.825 1,1.83333 0,4.38961 2.66425,4.14584 6.57225,-0.60136 z"
         id="path14551"
         inkscape:connector-curvature="0" />
      <path
         style="fill:#eeeeee"
         d="m 373.40383,-325.9672 c -21.71076,-2.0853 -27.90824,-2.8509 -40.48609,-5.0012 -123.22464,-21.0672 -217.09436,-85.84409 -265.057519,-182.9089 -12.85472,-26.01457 -20.52898,-47.74066 -26.96106,-76.32771 -6.66848,-29.63774 -9.04265,-52.96153 -9.08497,-89.25067 -0.0722,-61.87807 11.35149,-124.70549 35.60701,-195.8302 54.113179,-158.67662 162.105079,-308.33002 277.985789,-385.22802 52.83009,-35.0579 102.00245,-52.82 150.99684,-54.5433 24.36869,-0.8572 42.67254,1.5511 64.65358,8.5066 59.46298,18.8161 110.41796,68.6893 147.8164,144.6783 72.32568,146.9569 83.63484,371.24485 27.68624,549.08494 -36.75452,116.82916 -99.12804,201.32973 -183.29158,248.31444 -33.44999,18.67362 -71.1636,30.86672 -113.36464,36.65162 -10.87347,1.4906 -56.91906,2.7744 -66.5,1.8541 z m 9.79542,-138.90239 c 48.56573,-8.46915 98.72243,-58.36304 136.72413,-136.00771 20.43592,-41.75446 34.07996,-82.23817 43.47002,-128.98145 15.15947,-75.46311 13.79785,-141.48664 -4.0275,-195.28904 -8.5979,-25.95111 -18.12437,-42.21941 -33.82601,-57.76451 -8.61817,-8.53225 -11.5587,-10.74221 -19.63606,-14.7576 -12.01493,-5.9728 -20.0651,-8.0158 -31.5,-7.9942 -26.17767,0.05 -55.99246,15.69668 -84.49868,44.34576 -58.44305,58.73594 -102.00564,161.75889 -114.56568,270.94104 -2.16524,18.82196 -2.96919,59.20621 -1.52293,76.5 7.19828,86.0743 39.94234,141.30037 88.59918,149.43122 7.64002,1.27669 11.48292,1.19839 20.78353,-0.42351 z M 169.12229,-973.16462 c 2.62754,-3.58851 5.13562,-7.12862 25.65577,-36.21268 32.60976,-46.2191 65.87333,-86.3336 103.12577,-124.3653 52.20151,-53.2934 99.56465,-90.0366 156.5,-121.4086 17.36447,-9.5681 19.99185,-11.1899 18.15638,-11.208 -1.01399,-0.01 -2.07897,-0.9181 -2.36663,-2.0181 -0.3645,-1.3939 -1.36402,-2 -3.29797,-2 -2.07207,0 -2.92311,-0.5903 -3.35982,-2.3303 -0.47943,-1.9101 -1.10613,-2.2537 -3.47638,-1.9058 -2.39668,0.3517 -2.99565,0.01 -3.5,-2 -0.5108,-2.0352 -1.09105,-2.3536 -3.6146,-1.9832 -2.51636,0.3693 -3.16785,0.016 -3.9988,-2.1698 -0.54597,-1.436 -1.74171,-2.6109 -2.65719,-2.6109 -0.91548,0 -2.16411,-0.6822 -2.77475,-1.516 -2.34094,-3.1964 -25.52893,4.4997 -50.47887,16.754 -73.58706,36.1425 -149.1085,107.4139 -210.0486,198.2281 -12.74524,18.9932 -26.21737,41.2819 -28.66117,47.418 -1.55717,3.9098 -1.61545,5.3649 -0.53875,13.4518 0.66401,4.9873 1.58024,9.53945 2.03607,10.11594 0.45584,0.57649 1.13656,3.17517 1.51271,5.77485 0.37616,2.59968 1.10793,4.98874 1.62615,5.30902 0.51822,0.32028 0.94222,2.32921 0.94222,4.46429 0,2.13508 0.4215,4.14247 0.93668,4.46086 1.2298,0.76006 4.06332,6.47322 4.06332,8.19278 0,2.24842 1.36183,1.46041 4.21846,-2.44096 z"
         id="path14549"
         inkscape:connector-curvature="0" />
      <path
         style="fill:#ebebeb"
         d="m 376.90383,-325.9706 c -29.89733,-2.583 -45.09193,-4.804 -67.83398,-9.9154 -104.73058,-23.53854 -185.83999,-80.02621 -232.931069,-162.22199 -20.75126,-36.22058 -34.97309,-79.79502 -41.32709,-126.62261 -2.64005,-19.45655 -3.72724,-67.91535 -1.99445,-88.89769 3.76091,-45.54094 11.21778,-84.67948 25.10147,-131.74901 35.5416,-120.49578 107.233719,-245.1829 191.430789,-332.9368 100.55552,-104.8035 203.83713,-151.5705 293.55433,-132.9246 109.02567,22.6588 191.3744,146.0898 219.40445,328.8614 6.71984,43.81706 9.03038,76.34063 9.05787,127.5 0.022,40.96016 -0.64213,55.61032 -4.01199,88.5 -13.36151,130.40769 -52.73302,239.00002 -115.1136,317.5 -11.70197,14.7258 -42.10346,44.90581 -56.33673,55.9263 -47.26708,36.5978 -99.47312,58.0461 -158.5,65.1179 -12.43503,1.4898 -51.05303,2.6787 -60.5,1.8625 z m 8.53716,-112.41281 c 50.17302,-11.58187 102.99043,-65.18227 143.05277,-145.17345 46.96894,-93.78136 69.55535,-212.18151 57.86242,-303.32044 -9.93725,-77.45464 -41.16055,-130.1506 -84.97757,-143.4178 -20.14393,-6.0992 -39.81245,-3.8114 -63.07706,7.3372 -18.87936,9.0471 -34.46237,20.5315 -52.47436,38.67267 -65.13096,65.59795 -115.02824,185.99804 -126.36267,304.90793 -5.99307,62.8735 0.0401,120.20502 17.43583,165.68898 13.47459,35.23141 36.5368,62.02041 62.17966,72.2277 6.37681,2.53833 10.84552,3.65902 21.82382,5.47312 4.26238,0.70433 16.12444,-0.45393 24.53716,-2.39591 z M 155.59536,-951.1273 c 0.77661,-0.9625 6.99768,-10.18851 13.8246,-20.50224 46.60405,-70.40686 84.36018,-117.56686 133.96779,-167.33516 29.71338,-29.8096 51.68421,-49.1214 79.48313,-69.8635 34.18351,-25.5059 63.77838,-42.9392 107.03295,-63.0492 4.98856,-2.3193 7.77706,-4.0953 6.75,-4.2992 -0.9625,-0.191 -1.75,-0.7644 -1.75,-1.274 0,-0.5097 -0.675,-0.9267 -1.5,-0.9267 -0.825,0 -1.5,-0.675 -1.5,-1.5 0,-0.825 -0.675,-1.5 -1.5,-1.5 -0.825,0 -1.5,-0.675 -1.5,-1.5 0,-0.825 -0.68614,-1.5 -1.52475,-1.5 -0.83861,0 -1.95248,-1.125 -2.47525,-2.5 -0.67985,-1.7881 -1.69607,-2.5 -3.56887,-2.5 -1.74508,0 -2.78658,-0.6433 -3.12272,-1.9287 -0.81045,-3.0991 -6.62584,-3.4469 -18.37339,-1.0989 -83.21092,16.6318 -179.20807,88.9065 -256.38425,193.0276 -22.13219,29.8593 -45.06836,65.8942 -57.21178,89.885 -6.17442,12.19836 -6.26138,12.48386 -5.76914,18.93951 0.27488,3.60496 0.88324,7.0317 1.3519,7.61498 0.46867,0.58328 1.18364,3.06821 1.58882,5.52205 0.40519,2.45385 1.07857,5.15385 1.4964,6 0.41783,0.84616 1.31469,2.88846 1.99303,4.53846 0.67834,1.65 1.60006,3.7321 2.04826,4.62689 0.44821,0.89479 1.12079,3.25729 1.49462,5.25 0.37384,1.99271 1.07962,3.62311 1.56841,3.62311 0.48879,0 0.88871,0.9 0.88871,2 0,2.46289 0.84286,2.54118 2.69153,0.25 z"
         id="path14547"
         inkscape:connector-curvature="0" />
      <path
         style="fill:#e8e8e8"
         d="m 381.40383,-326.4893 c -35.87586,-1.4514 -74.73992,-8.5754 -111.63164,-20.4626 -34.94471,-11.2599 -73.28627,-30.14864 -100.78145,-49.64949 -23.13395,-16.40766 -48.82638,-40.41744 -65.03521,-60.77591 -32.328049,-40.60438 -53.543289,-87.11076 -64.521769,-141.43955 -4.91548,-24.32509 -6.59564,-40.48143 -7.24034,-69.62298 -1.3908,-62.86673 8.64137,-124.53888 31.87301,-195.93747 59.708509,-183.5041 190.884729,-353.9196 323.581299,-420.3755 91.78102,-45.965 174.81431,-39.6505 243.49375,18.5169 66.35167,56.196 114.47333,163.4814 132.70404,295.8586 5.47164,39.7308 7.4833,70.82634 7.43969,115 -0.0364,36.86552 -0.92,56.26043 -3.96357,87 -11.43549,115.4967 -44.81386,217.68556 -95.55561,292.54636 -26.14338,38.5701 -60.17219,73.16088 -94.8622,96.42879 -47.48324,31.84885 -103.87747,50.55865 -158.5,52.58515 -7.7,0.2857 -15.35,0.631 -17,0.7675 -1.65,0.1364 -10.65,-0.062 -20,-0.4398 z m -5,-70.51511 c 92.93197,-17.57343 189.39807,-161.73765 223.40785,-333.87289 9.10171,-46.06687 11.50789,-70.64155 11.55376,-118 0.0394,-40.71934 -0.85854,-52.82565 -6.00809,-81 -16.36011,-89.5099 -61.03428,-144.5 -117.39227,-144.5 -52.91255,0 -114.27944,48.2663 -162.74205,128 -67.39139,110.87645 -102.47231,265.6681 -87.25376,385 10.03231,78.66546 39.08383,134.3143 81.57598,156.26064 18.59357,9.6032 35.90946,12.07373 56.85858,8.11225 z M 140.90457,-924.8773 c 1.1515,-1.65 8.51267,-13.35 16.35816,-26 47.52568,-76.63 92.34156,-134.2025 147.13349,-189.0146 66.86386,-66.8884 133.92075,-112.362 202.00761,-136.9882 7.15,-2.586 15.19751,-5.5559 17.88335,-6.5996 2.68585,-1.0437 5.48422,-1.8976 6.21862,-1.8976 1.51869,0 0.79006,-2.7106 -1.29602,-4.8214 -0.71827,-0.7268 -1.30595,-2.3502 -1.30595,-3.6076 0,-2.0424 -0.66618,-2.3812 -6.25,-3.1785 -9.33206,-1.3326 -35.15163,-0.7575 -47.4357,1.0566 -99.17541,14.6456 -211.66125,103.5809 -298.55837,236.0509 -18.30287,27.9017 -34.46646,56.0796 -45.5779,79.45565 -5.16938,10.87524 -5.46538,11.9171 -5.33498,18.77767 0.0759,3.99496 0.53981,8.05177 1.03083,9.01513 0.49103,0.96335 1.44778,3.10155 2.12612,4.75155 0.67834,1.65 1.63084,3.78139 2.11667,4.73643 0.48583,0.95504 0.88333,3.31754 0.88333,5.25 0,1.93246 0.45,3.51357 1,3.51357 0.55,0 1,1.125 1,2.5 0,1.375 0.50888,2.5 1.13084,2.5 0.73391,0 0.93148,1.22852 0.56287,3.5 -0.31238,1.925 -0.14626,3.5 0.36916,3.5 0.51542,0 0.95144,1.0125 0.96893,2.25 0.0356,2.51971 -0.38504,2.92183 4.96894,-4.75 z"
         id="path14545"
         inkscape:connector-curvature="0" />
      <path
         style="fill:#e5e5e5"
         d="m 373.90383,-327.0067 c -41.5787,-3.0356 -90.74468,-14.1323 -128,-28.8894 -111.97986,-44.35596 -183.541519,-128.90622 -206.500799,-243.9812 -8.5915,-43.06173 -9.73497,-90.5467 -3.40742,-141.5 22.09283,-177.90492 135.154349,-381.1231 274.083139,-492.6404 94.42762,-75.7965 188.6107,-99.1489 266.82508,-66.1585 103.91433,43.8305 176.70871,187.3394 191.98593,378.48654 4.25766,53.27132 2.68564,121.30967 -4.02745,174.31236 -20.64378,162.9912 -81.97975,288.84394 -174.45848,357.96413 -44.04135,32.91727 -90.27783,51.90507 -146.44614,60.14077 -13.23036,1.9399 -55.702,3.3136 -70.05386,2.2657 z m -2.20784,-37.94205 c 57.72184,-11.76812 117.07322,-64.97369 166.13138,-148.92855 43.36668,-74.21483 75.95334,-173.51576 86.96258,-265 4.1548,-34.52541 4.60589,-42.55358 4.57931,-81.5 -0.0267,-39.18289 -0.80816,-51.20716 -5.05898,-77.84634 -12.76129,-79.97296 -45.05328,-137.01456 -89.82081,-158.66246 -14.87702,-7.194 -23.31692,-9.0041 -41.58564,-8.919 -13.42717,0.062 -16.80224,0.4222 -25.23777,2.6893 -48.91292,13.1457 -98.38837,54.9205 -141.2185,119.2385 -15.36558,23.07449 -24.84484,39.72934 -38.12398,66.98301 -35.93777,73.75745 -59.12667,155.87049 -68.48731,242.51699 -2.68188,24.82475 -3.76136,80.59676 -2.00978,103.83661 8.67822,115.14198 52.01965,191.30523 117.07734,205.73827 8.06751,1.78978 27.67825,1.71178 36.79216,-0.14633 z M 131.21695,-905.95032 c 57.85944,-100.37678 104.4997,-163.70048 168.1342,-228.27628 81.93352,-83.1456 160.65964,-132.571 243.94423,-153.1515 14.31684,-3.5379 14.8538,-3.7592 11.56131,-4.7659 -21.49281,-6.5712 -53.34316,-8.5309 -77.95286,-4.7961 -41.48151,6.2952 -85.88098,24.8958 -128.5,53.8334 -80.81462,54.8718 -159.43779,147.7276 -213.57432,252.23632 -9.42574,18.19606 -18.92568,39.25626 -18.92568,41.9559 0,0.70215 -0.84399,3.92276 -1.87554,7.15691 -2.66718,8.36228 -3.58884,17.57186 -2.05246,20.50913 2.47426,4.73033 2.928,5.87051 2.928,7.35757 0,0.83246 0.48519,1.51357 1.0782,1.51357 0.61298,0 0.94524,1.40231 0.77005,3.25 -0.33988,3.58457 4.9695,15.94666 6.62082,15.4156 0.53299,-0.17141 4.06282,-5.67879 7.84405,-12.23862 z"
         id="path14543"
         inkscape:connector-curvature="0" />
      <path
         style="fill:#e3e3e3"
         d="m 380.90383,-327.0462 c -64.23052,-3.4907 -133.6984,-23.4493 -185.54147,-53.3073 C 74.182461,-450.1446 16.801851,-578.10693 35.490681,-736.8773 c 12.72571,-108.11091 60.13631,-230.40904 129.673649,-334.5 77.84338,-116.5243 172.03988,-199.0384 262.7395,-230.154 10.29395,-3.5315 28.11301,-8.092 41,-10.4933 7.3893,-1.3768 14.94338,-1.7793 34,-1.8114 21.78646,-0.037 25.7737,0.2164 36,2.2852 56.2603,11.3816 103.94904,46.0193 142.73642,103.6735 49.78302,73.9983 80.45956,179.4078 88.27585,303.33011 1.32894,21.06951 1.33078,77.82169 0.003,99.66989 -9.98165,164.27705 -60.35127,299.71357 -142.42219,382.95301 -65.47538,66.40759 -152.72997,99.97929 -246.59308,94.87809 z m -14.38099,-21.8562 c 49.56016,-8.5109 103.85022,-49.66241 148.38514,-112.4749 31.36983,-44.24432 56.91191,-93.98712 77.89793,-151.70498 45.47022,-125.05683 58.24399,-263.91398 33.64816,-365.77218 -20.18972,-83.61134 -62.10558,-134.47614 -117.4905,-142.57444 -50.65125,-7.4062 -117.08624,32.8233 -169.35386,102.5516 -43.90325,58.56971 -77.29918,127.68468 -101.22914,209.5 -43.19567,147.68385 -40.37294,299.32883 7.22226,388 28.83354,53.71767 73.66756,80.5895 120.92001,72.4749 z M 128.89763,-900.3773 c 51.72463,-93.61709 104.85217,-166.7259 168.41053,-231.7496 53.7336,-54.9725 106.59943,-95.3606 160.59567,-122.6909 34.99531,-17.7129 61.91404,-27.1879 99.98587,-35.1933 2.30774,-0.4852 2.35138,-0.598 0.60903,-1.573 -1.03226,-0.5777 -6.4259,-2.0829 -11.98587,-3.3448 -45.82494,-10.4008 -97.80256,-2.078 -151.10903,24.1961 -81.57683,40.2081 -164.42358,121.3538 -229.05855,224.3555 -26.88976,42.8512 -50.96596,90.84657 -56.68492,113 -4.21106,16.31231 -4.79885,18.74704 -6.15941,25.51342 -1.6314,8.11337 -1.15959,12.17328 1.51327,13.02162 1.36089,0.43192 1.88961,1.54369 1.88961,3.97333 0,1.85548 0.49325,3.67844 1.09612,4.05103 0.60286,0.3726 0.89968,2.01584 0.6596,3.65165 -0.27849,1.89745 0.0488,3.16042 0.90388,3.48857 0.73722,0.2829 1.3404,1.36621 1.3404,2.40737 0,1.04115 0.45,1.89301 1,1.89301 0.55,0 1,0.75 1,1.66667 0,0.91666 0.17993,1.47916 0.39985,1.25 0.21992,-0.22917 7.23719,-12.79167 15.59395,-27.91667 z"
         id="path14541"
         inkscape:connector-curvature="0" />
      <path
         style="fill:#e0e0e0"
         d="m 377.40383,-327.8971 c -1.1,-0.2064 -5.6,-0.6806 -10,-1.0537 l -8,-0.6783 8.72867,-1.7849 c 64.04739,-13.0966 131.99013,-75.88807 184.98888,-170.9633 45.28758,-81.24206 76.90087,-179.1931 89.72334,-278 4.5823,-35.31006 5.47453,-50.04025 5.51204,-91 0.0397,-43.39301 -1.01978,-58.26074 -6.44932,-90.5 -11.5086,-68.3353 -37.10235,-122.4047 -71.63912,-151.3449 -21.1747,-17.7434 -40.98657,-25.8166 -65.86449,-26.8394 -21.22944,-0.8727 -39.80597,3.4498 -63,14.6594 -23.7606,11.4834 -44.93916,27.258 -69.04982,51.431 -35.39466,35.4862 -64.43951,77.12524 -91.7918,131.5939 -46.65046,92.89855 -74.16175,194.80861 -81.66185,302.5 -1.35825,19.50259 -1.35967,66.3156 -0.003,84.06673 5.54869,72.57701 23.29127,131.03156 52.18254,171.92017 8.90565,12.6038 25.25628,28.7639 36.82348,36.3944 8.84099,5.8322 9.22252,6.2175 5.5,5.5546 -7.10414,-1.2651 -30.63361,-8.4296 -44.5,-13.5499 -19.86909,-7.33688 -52.88523,-24.03647 -70.5,-35.65898 -63.78919,-42.08943 -106.795639,-99.15818 -129.505279,-171.85164 -4.04276,-12.94087 -10.02894,-38.2196 -11.94422,-50.43864 -14.93229,-95.26439 5.35393,-211.43027 57.44272,-328.93674 49.964849,-112.7151 125.328429,-216.1099 207.507229,-284.6888 83.82407,-69.9519 168.09493,-98.9346 242,-83.2292 110.39946,23.4606 192.81676,150.9428 219.43391,339.418 5.54215,39.24383 7.06609,64.4771 7.06609,117 0,47.68116 -0.5724,59.66578 -4.53794,95.01356 -14.59555,130.1009 -54.69775,237.27704 -117.29752,313.48644 -10.09462,12.28926 -38.49456,40.3491 -50.33347,49.73069 -45.55993,36.10342 -95.63036,57.50671 -154.06333,65.85641 -9.90546,1.4154 -61.51531,2.8787 -66.76774,1.8931 z M 116.06824,-875.3773 c 39.2218,-76.28943 83.3699,-143.712 133.25123,-203.5 91.68774,-109.8974 192.91941,-182.3961 287.58436,-205.9582 7.425,-1.8481 15.525,-3.6767 18,-4.0636 6.784,-1.0604 7.91508,-2.025 3.89915,-3.3251 -20.42129,-6.611 -52.9594,-8.941 -78.59793,-5.6283 -112.28001,14.5077 -237.97455,120.3868 -329.99855,277.9752 -20.80901,35.63481 -46.30267,90.26076 -46.30267,99.21398 0,1.42714 -1.32246,7.81282 -2.93881,14.19041 -5.942989,23.44915 -7.418179,33.09561 -5.061189,33.09561 0.55,0 1,1.26548 1,2.81217 0,1.54669 0.9,4.67496 2,6.95169 1.099999,2.27674 1.999999,5.06127 1.999999,6.18783 0,1.12657 0.45,2.04831 1,2.04831 0.55,0 1,0.73569 1,1.63486 0,2.97263 3.30961,-2.4665 13.16441,-21.63486 z"
         id="path14539"
         inkscape:connector-curvature="0" />
      <path
         style="fill:#dcdcdc"
         d="m 428.45383,-330.2041 c 0.5225,-0.4547 4.0394,-2.9895 7.81534,-5.6328 73.4057,-51.38719 140.49602,-153.54567 182.67715,-278.16267 25.89372,-76.49863 40.45321,-150.46547 45.05183,-228.87773 1.29807,-22.1337 0.69041,-75.24204 -1.05838,-92.5 -4.44254,-43.84144 -10.8876,-75.7496 -21.62257,-107.049 -25.74098,-75.0515 -67.89311,-118.258 -122.89004,-125.9641 -55.53788,-7.7819 -127.49183,35.2363 -186.52138,111.5131 -12.14617,15.695 -33.46366,47.8988 -45.01301,68 -57.90869,100.78764 -95.95307,231.55863 -104.09032,357.79245 -1.5121,23.45734 -0.61729,84.04728 1.53897,104.20755 4.33447,40.52579 12.7101,78.37974 24.21852,109.45637 4.70162,12.69597 15.74125,35.53388 22.20059,45.92682 2.86564,4.61075 5.04039,8.55305 4.83277,8.76067 -0.60375,0.60375 -7.44959,-2.04028 -17.68947,-6.8321 -64.67028,-30.26289 -116.39126,-79.84965 -147.915349,-141.81176 -18.80602,-36.96415 -30.59743,-77.94979 -35.6743,-124 -2.06601,-18.73991 -2.34438,-61.90632 -0.52879,-82 7.55834,-83.65059 31.88059,-166.65724 74.572489,-254.5 51.75615,-106.4933 127.92014,-204.0887 208.04595,-266.5867 78.54972,-61.2688 157.37728,-86.2528 226.5,-71.7883 101.69379,21.2803 179.11972,128.7217 212.85741,295.375 9.15409,45.21831 13.83665,91.3802 14.80989,146 2.75922,154.85113 -34.65008,300.16587 -102.23919,397.14355 -23.02823,33.04117 -54.38936,65.14198 -84.92811,86.9312 -40.37234,28.80545 -88.35661,47.62115 -137.34174,53.85475 -13.7947,1.7554 -19.02453,1.9763 -17.60826,0.7437 z M 95.840731,-832.67498 c 41.276889,-86.37484 75.109909,-143.33805 123.066819,-207.20232 85.77602,-114.228 185.03685,-196.7457 279.67325,-232.4985 18.9041,-7.1418 45.74005,-14.5994 59.58533,-16.5584 2.61926,-0.3706 4.98525,-1.0346 5.25775,-1.4755 1.26017,-2.039 -22.31303,-7.29 -40.52005,-9.0259 -24.98188,-2.3819 -54.17553,1.198 -83.5,10.2393 -104.56904,32.2408 -218.57067,140.9489 -297.85487,284.0245 -19.95747,36.01505 -42.979609,87.56912 -50.690309,113.51207 -1.01178,3.40417 -1.00672,4.51496 0.0262,5.75957 1.51519,1.8257 1.26197,3.82155 -2.98441,23.52286 -4.03316,18.71206 -5.57476,30.30729 -4.09495,30.80056 0.60408,0.20136 1.09833,1.90361 1.09833,3.78277 0,2.37037 0.45935,3.41667 1.5,3.41667 1,0 1.5,1 1.5,3 0,1.65 0.24847,3 0.55216,3 0.30368,0 3.62682,-6.43396 7.38474,-14.29768 z"
         id="path14537"
         inkscape:connector-curvature="0" />
      <path
         style="fill:#d8d8d8"
         d="m 482.41988,-346.0111 c 82.36588,-81.88107 151.22211,-223.97812 181.89188,-375.3662 12.35056,-60.96322 17.82071,-113.11804 17.77767,-169.5 -0.0604,-79.09465 -12.16257,-146.6477 -35.91972,-200.5 -27.87053,-63.1764 -70.39208,-100.2669 -122.76588,-107.0855 -33.65239,-4.3812 -80.23314,11.2673 -119,39.9775 -110.69742,81.9808 -201.17101,262.24278 -230.92849,460.108 -6.23293,41.44434 -8.9241,76.88765 -8.95961,118 -0.0655,75.83384 10.65332,140.2146 32.26956,193.82173 l 2.1459,5.32173 -2.09764,-0.66577 c -3.50351,-1.11197 -18.86147,-10.28093 -28.63982,-17.09846 -27.60241,-19.24457 -55.69804,-46.98549 -74.582529,-73.64092 -30.88865,-43.59927 -50.37352,-95.37677 -58.3083,-154.94371 -2.17339,-16.31581 -3.04907,-68.08632 -1.47514,-87.21057 2.09702,-25.47995 5.61419,-49.91059 10.66299,-74.06625 40.19579,-192.31416 171.462309,-391.72778 315.725889,-479.63518 98.77047,-60.1861 192.05149,-60.6194 265.3174,-1.2325 18.27309,14.8116 40.44826,39.564 55.41006,61.8499 77.98824,116.1652 108.89227,313.21506 77.86786,496.5 -16.83172,99.43786 -49.84494,184.0315 -96.7836,248 -43.72902,59.59436 -101.31412,101.39879 -167.12453,121.3256 -6.325,1.9151 -13.74278,3.8172 -16.48395,4.2269 l -4.98396,0.7448 8.98396,-8.9311 z M 83.183981,-801.8773 c 15.5913,-36.29871 36.881719,-80.32502 52.710639,-109 37.99613,-68.83209 81.19373,-130.7503 130.81049,-187.5 15.56336,-17.8008 56.44928,-58.9053 72.69872,-73.0875 73.45964,-64.1139 145.43871,-103.1093 214.28254,-116.0899 6.80565,-1.2832 11.14027,-2.5542 10.92399,-3.203 -0.69821,-2.0946 -20.66563,-6.8025 -36.83231,-8.6842 -13.8416,-1.6111 -40.94203,-0.6567 -55.87422,1.9677 -82.2833,14.4615 -169.26121,74.168 -248.51841,170.5969 -22.19166,26.9996 -49.25217,65.5923 -67.66406,96.5 -29.93886,50.25774 -58.649629,112.70165 -73.217619,159.24322 -6.04413,19.30967 -6.22035,20.35437 -3.66409,21.72243 2.71885,1.45509 2.65813,4.38735 -0.40214,19.41962 -4.3877,21.55273 -6.59379,36.04773 -5.9404,39.03111 0.72129,3.29342 2.57107,5.75094 3.57534,4.75001 0.36773,-0.36651 3.56792,-7.41639 7.11153,-15.66639 z"
         id="path14535"
         inkscape:connector-curvature="0" />
      <path
         style="fill:#d5d5d5"
         d="m 517.68762,-358.1273 c 47.03054,-58.17603 87.56457,-131.44575 118.07999,-213.44256 86.91426,-233.54401 81.1736,-489.00214 -13.52525,-601.87094 -22.93602,-27.3368 -50.7543,-44.6337 -82.83853,-51.5076 -11.13359,-2.3853 -33.88398,-2.3813 -46.5,0.01 -41.79749,7.9163 -86.40492,33.8136 -128.40536,74.547 -102.76846,99.6684 -184.41348,284.91586 -208.0339,472.0161 -12.62762,100.0249 -8.51212,193.01165 11.81714,267 1.889,6.875 3.30511,12.63414 3.14691,12.79808 -0.69587,0.72118 -18.35441,-12.12541 -28.51474,-20.74448 -63.062489,-53.49626 -101.294469,-132.26693 -108.988909,-224.5536 -2.19111,-26.28003 -0.82995,-71.52809 3.00833,-100.00388 24.88502,-184.61938 141.211099,-388.43972 283.970529,-497.55802 42.89974,-32.7904 89.24259,-56.186 130.5,-65.8812 20.62872,-4.8476 27.36159,-5.5581 52.5,-5.5401 26.46412,0.019 36.52979,1.4465 57.5,8.1553 86.72535,27.7455 155.46758,124.3995 188.40599,264.9056 20.82114,88.81711 25.98815,186.75024 15.00629,284.4223 -12.95192,115.19364 -48.42847,216.60525 -101.27499,289.5 -37.39815,51.58577 -88.63295,92.97538 -139.81081,112.945 -6.42043,2.5052 -12.18005,4.555 -12.79914,4.555 -0.6191,0 2.4213,-4.3875 6.75645,-9.75 z m -442.985789,-421.25 c 11.86301,-29.63915 19.94711,-48.18664 32.547659,-74.67465 94.15909,-197.93485 243.60267,-358.88905 385.15434,-414.82015 21.39711,-8.4546 45.57772,-15.6 62.5,-18.4689 14.59224,-2.4738 14.99875,-2.8922 5.75,-5.9179 -23.08996,-7.5538 -59.16655,-9.6365 -86.70219,-5.0053 -90.61131,15.2399 -187.71565,86.1049 -271.84409,198.3869 -51.49344,68.7257 -93.91958,149.72219 -121.109929,231.2131 -5.7303,17.17399 -12.12886,40.1021 -13.56698,48.61485 -0.56558,3.3479 -0.37873,3.89801 1.48998,4.38669 4.26685,1.11581 4.21154,4.2347 -0.5016,28.28536 -1.58674,8.09696 -4.53436,28.98722 -4.48478,31.78438 0.0258,1.45689 0.16098,1.48941 0.89621,0.21562 0.47619,-0.825 4.91831,-11.625 9.87138,-24 z"
         id="path14533"
         inkscape:connector-curvature="0" />
      <path
         style="fill:#d3d3d3"
         d="m 533.44984,-359.45175 c 0.36523,-0.59095 4.88919,-6.94286 10.05326,-14.11536 72.2569,-100.35944 128.1359,-242.74177 151.80653,-386.81019 9.53233,-58.01739 13.2147,-106.09065 12.29416,-160.5 -0.73416,-43.39242 -4.03598,-77.74256 -10.81379,-112.5 -19.48457,-99.9193 -60.13071,-168.0942 -117.61664,-197.2759 -42.98812,-21.8221 -88.01683,-19.2556 -141.71831,8.0776 -41.06568,20.9018 -85.2345,61.0975 -124.65354,113.4406 -96.87421,128.63567 -161.95487,317.54824 -172.96812,502.08235 -1.55734,26.09433 -0.70883,88.38998 1.50748,110.67535 2.31152,23.24271 6.0021,48.15359 10.02777,67.68607 1.89685,9.2035 3.2547,16.92775 3.01744,17.16501 -1.39181,1.39182 -25.08054,-19.65499 -37.63453,-33.43728 -34.184599,-37.52927 -58.118229,-82.11449 -71.348989,-132.9138 -8.51226,-32.68273 -11.42034,-54.39893 -12.21314,-91.20214 -0.5983,-27.77432 0.34062,-46.05553 3.76959,-73.39506 13.57139,-108.20609 63.628419,-233.87508 133.958759,-336.3057 72.85081,-106.1014 159.61109,-183.3333 243.11384,-216.4141 29.60499,-11.7284 53.4769,-16.911 82.37222,-17.8832 24.40553,-0.821 42.67888,1.5863 64.65358,8.5174 114.52334,36.1223 195.34265,191.8498 207.84691,400.49191 2.12616,35.47652 1.21334,92.29398 -2.05951,128.19089 -8.47599,92.96548 -31.03106,178.04103 -65.37559,246.59039 -22.10519,44.12047 -44.57972,75.95312 -75.53161,106.98204 -24.85828,24.92014 -49.23203,43.04969 -76.69003,57.04314 -12.88337,6.56577 -17.25952,8.17523 -15.79774,5.80998 z M 69.245301,-763.9614 c 49.793949,-130.63339 114.137189,-238.9443 199.554309,-335.9159 14.55518,-16.5241 54.94233,-56.8962 70.60422,-70.578 74.48227,-65.0654 147.14482,-104.1016 217.43225,-116.8101 14.23975,-2.5746 13.38223,-4.0873 -4.93225,-8.7003 -38.82248,-9.7785 -84.48945,-5.6807 -129.39535,11.6111 -98.26142,37.837 -201.51413,138.7499 -276.95036,270.6742 -17.33031,30.30759 -40.47366,79.43378 -53.848179,114.3031 -12.1184,31.59442 -24.7058,72.81198 -28.35109,92.83593 -0.8675,4.76524 -1.80876,9.46313 -2.09169,10.43976 -0.37738,1.30266 0.30488,2.06129 2.56113,2.84782 3.86843,1.34854 3.91075,2.70598 0.68744,22.04702 -1.31346,7.88121 -2.68051,16.57947 -3.03788,19.32947 -0.35737,2.75 -0.91029,6.35 -1.22871,8 -1.10321,5.71672 0.67364,1.74986 8.99616,-20.0841 z"
         id="path14531"
         inkscape:connector-curvature="0" />
      <path
         style="fill:#d0d0d0"
         d="m 552.90383,-368.90371 c 0,-0.28953 4.01974,-6.53243 8.93276,-13.87312 83.45378,-124.69089 139.22219,-295.08756 152.71172,-466.60047 2.11287,-26.86427 2.42942,-95.19171 0.54435,-117.5 -8.51114,-100.7224 -31.43104,-174.4172 -70.75504,-227.5 -9.38367,-12.6669 -28.99199,-32.3421 -40.17463,-40.3117 -66.66949,-47.514 -147.82644,-31.6649 -234.28627,45.7536 -53.33613,47.7586 -109.10019,129.427 -149.08206,218.33594 -78.24051,173.98584 -109.38596,383.08935 -80.29188,539.06156 0.85557,4.58667 1.34147,8.55352 1.07977,8.81522 -0.77244,0.77243 -13.51846,-10.63795 -22.61472,-20.24495 -40.037449,-42.28549 -65.951739,-94.41419 -78.997379,-158.90967 -9.65496,-47.73252 -9.33287,-106.33349 0.91454,-166.39044 14.55425,-85.29799 52.01695,-183.09025 102.325549,-267.10956 53.9294,-90.0663 124.28512,-168.9427 194.19329,-217.7116 36.18043,-25.24 75.27212,-44.059 109.92182,-52.9171 16.69511,-4.2681 32.1196,-6.434 50.07818,-7.0321 71.92587,-2.3955 134.84141,34.081 183.29014,106.2658 30.86821,45.9912 55.53092,107.1577 70.65639,175.2362 12.73347,57.3124 18.56298,113.47809 18.54322,178.6588 -0.0156,51.5366 -3.4027,92.96605 -11.54846,141.25635 -20.79869,123.30043 -66.32157,222.95561 -131.92888,288.80851 -20.2114,20.28706 -45.02719,39.51188 -65.59546,50.81688 -6.49459,3.56965 -7.91695,4.12513 -7.91695,3.09185 z M 65.910981,-753.8773 c 42.204039,-115.85957 100.738489,-220.59257 174.171559,-311.6371 48.60925,-60.2673 104.4429,-113.3133 158.011,-150.1219 57.42677,-39.4601 108.9835,-62.3221 162.31029,-71.974 8.82724,-1.5977 9.29705,-3.5053 1.5,-6.0907 -28.79069,-9.5465 -72.24835,-10.041 -107,-1.2175 -91.06688,23.122 -187.8344,101.0855 -268.76862,216.5412 -56.21635,80.1947 -103.485209,184.4073 -123.600829,272.5 -2.41395,10.57144 -5.6207,27.75371 -5.62736,30.15217 -0.002,0.6337 1.40967,1.6447 3.13649,2.24668 3.55763,1.24019 3.53099,-0.18711 0.38451,20.60115 -3.55242,23.4702 -3.42212,23.44644 5.48296,-1 z"
         id="path14529"
         inkscape:connector-curvature="0" />
      <path
         style="fill:#cbcbcb"
         d="m 599.55655,-410.6273 c 83.46773,-146.6495 134.39724,-340.23019 134.33761,-510.61093 -0.0515,-147.03297 -36.19767,-265.03417 -99.55195,-324.99247 -19.8001,-18.7388 -35.98317,-28.9276 -59.93838,-37.737 -4.95,-1.8204 -7.9875,-3.3322 -6.75,-3.3597 1.71,-0.038 2.25,-0.6403 2.25,-2.5097 0,-2.1453 -0.80067,-2.7071 -6.26208,-4.394 -32.24941,-9.9608 -68.98775,-10.6517 -105.72652,-1.9883 -87.23507,20.5711 -181.47045,93.8233 -261.89599,203.5802 -55.18727,75.3141 -101.432339,169.63685 -126.622119,258.2619 -9.94154,34.97728 -18.49329,78.76258 -18.49329,94.68642 0,3.61177 0.31763,4.31358 1.95228,4.31358 1.69638,0 1.99131,0.81925 2.25,6.25 l 0.29772,6.25 1.72122,-4.5 c 0.94667,-2.475 4.93552,-13.5 8.86412,-24.5 30.73597,-86.06015 68.747449,-161.91126 119.019049,-237.5 23.41694,-35.2099 51.68308,-72.3294 75.33905,-98.9364 9.63102,-10.8324 12.26281,-13.3223 9.31604,-8.8136 -0.8088,1.2375 -5.51913,9 -10.46739,17.25 -82.74699,137.95992 -134.85889,310.67797 -145.27654,481.5 -1.30425,21.3863 -1.30138,78.0576 0.005,98.51707 0.97483,15.26707 3.31435,40.90909 4.60596,50.48293 l 0.6071,4.5 -4.2106,-4 c -6.26915,-5.9556 -19.470799,-22.62234 -27.182629,-34.31736 -23.53627,-35.69284 -38.21546,-72.5175 -47.70838,-119.68264 -21.035629,-104.51451 5.44903,-241.85812 72.461839,-375.77121 25.71074,-51.37829 54.42327,-97.01729 88.85027,-141.22879 78.77065,-101.1581 167.22115,-166.8816 251.55589,-186.9195 29.92201,-7.1095 63.55345,-7.6909 91,-1.5733 100.25713,22.3467 177.76135,130.2764 210.39782,292.9928 10.91829,54.43558 15.07976,99.39626 15.04069,162.5 -0.0341,55.01808 -2.91514,91.6083 -10.94467,139 -22.63088,133.57127 -72.65528,238.26492 -144.43349,302.27789 -9.06549,8.08475 -23.12567,19.22211 -24.26664,19.22211 -0.29054,0 4.14602,-8.2125 9.85901,-18.25 z"
         id="path14527"
         inkscape:connector-curvature="0" />
      <path
         style="fill:#c8c8c8"
         d="m 639.43405,-445.8773 c 57.44417,-120.59907 95.52082,-256.70071 108.40945,-387.5 3.54959,-36.02269 4.14604,-46.72086 4.73896,-85 0.68985,-44.53663 -1.38881,-87.2222 -5.69717,-116.992 -0.99288,-6.8607 -1.24844,-11.6228 -0.58627,-10.9247 0.71456,0.7534 7.48596,31.1389 10.00966,44.9167 14.60746,79.74725 16.98211,172.25845 6.54555,255 -14.36679,113.90052 -50.4917,213.64656 -102.31272,282.5 -7.55803,10.04218 -19.28763,23.91162 -24.10291,28.5 l -3.67307,3.5 6.66852,-14 z M 91.082431,-479.55079 c -18.66329,-24.84186 -36.80745,-65.14308 -46.06878,-102.32651 -8.98037,-36.05541 -11.45293,-56.93064 -11.42992,-96.5 0.0276,-47.39217 5.04023,-85.83561 17.89144,-137.21383 13.46365,-53.8267 32.21316,-104.06973 59.441839,-159.28617 23.43998,-47.5334 43.80821,-81.0356 76.79152,-126.3085 74.22947,-101.8874 164.15423,-174.6512 246.8016,-199.7027 6.33043,-1.9188 12.24868,-3.4888 13.15168,-3.4888 0.90299,0 -3.28565,2.5366 -9.30809,5.637 -6.02244,3.1003 -15.22489,8.321 -20.44989,11.6015 -5.225,3.2805 -16.98442,9.9473 -26.13204,14.8151 -42.96545,22.8635 -76.41827,47.9164 -116.75067,87.4347 -72.45094,70.9886 -131.06914,158.9858 -174.86893,262.5117 -26.241739,62.02542 -44.045039,126.35966 -50.691689,183.18016 -1.82488,15.60044 -3.09766,39.57016 -2.04926,38.59287 1.34963,-1.25809 5.32854,-11.58376 12.62883,-32.77303 26.84011,-77.90406 54.699879,-139.04747 93.179669,-204.5 13.85336,-23.56399 36.82639,-58.75211 44.72113,-68.5 2.20541,-2.7231 2.82895,-4.2945 -8.71632,21.96644 -8.10319,18.43157 -21.14299,51.80779 -29.15339,74.62003 -34.07368,97.03591 -54.89491,194.78927 -63.774349,299.41353 -1.97527,23.27415 -2.96281,99.72044 -1.5565,120.49093 0.55824,8.24502 0.86398,15.14195 0.67941,15.32651 -0.18456,0.18457 -2.13635,-2.06135 -4.33729,-4.99093 z M 744.98278,-1048.9606 c 0.048,-1.165 0.28494,-1.4019 0.60416,-0.6042 0.28887,0.7219 0.25335,1.5844 -0.0789,1.9167 -0.33229,0.3323 -0.56864,-0.2584 -0.52522,-1.3125 z"
         id="path14525"
         inkscape:connector-curvature="0" />
      <path
         style="fill:#c5c5c5"
         d="m 664.00033,-473.8773 c 29.28923,-66.39371 56.95917,-152.27793 72.97313,-226.5 16.3864,-75.94825 26.93037,-163.56327 26.93037,-223.7776 0,-9.10565 0.18251,-16.36823 0.40559,-16.13907 0.22307,0.22917 1.22308,10.09167 2.22225,21.91667 1.39827,16.54835 1.82306,31.74876 1.84441,66 0.0272,43.647 -0.49831,55.326 -4.0498,90 -10.95787,106.98409 -43.43784,207.79625 -88.92253,276 -4.5849,6.875 -9.72111,14.075 -11.4138,16 l -3.07763,3.5 3.08801,-7 z m -584.661439,-24.75 c -1.5569,-2.3375 -6.0345,-10.55 -9.95023,-18.25 -13.63511,-26.81244 -22.34777,-53.19062 -29.89196,-90.5 -10.40494,-51.45705 -7.49868,-122.01687 7.85794,-190.77975 20.65194,-92.4739 65.908379,-195.51703 120.876459,-275.22025 44.95033,-65.1776 87.95993,-113.5164 136.67273,-153.6074 18.41284,-15.1539 45.18258,-33.7264 60.5,-41.9741 l 7,-3.7691 -14.90214,14.4253 c -8.19618,7.9339 -15.84618,15.0752 -17,15.8696 -3.91368,2.6945 -28.04615,22.3762 -38.59786,31.4793 -14.10804,12.1711 -44.88958,42.9568 -59.5725,59.5805 -32.56028,36.8641 -62.37711,77.9922 -89.89393,123.9959 -13.00636,21.7445 -39.41857,74.20324 -50.85205,101 -32.651519,76.52567 -52.853259,157.01809 -55.214919,220 l -0.54371,14.5 8.11998,-23 c 4.466,-12.65 11.05495,-31.325 14.64212,-41.5 22.16631,-62.87466 56.802599,-135.87178 88.261719,-186.01447 8.60224,-13.71111 9.8534,-15.1628 7.17434,-8.32417 -36.77046,93.86091 -64.379219,207.79431 -75.565889,311.83864 -4.44387,41.33132 -7.17422,98.3018 -6.07458,126.75 0.37736,9.7625 0.4834,17.75 0.23565,17.75 -0.24775,0 -1.72428,-1.9125 -3.28117,-4.25 z"
         id="path14523"
         inkscape:connector-curvature="0" />
      <path
         style="fill:#c3c3c3"
         d="m 691.95724,-521.34863 c 13.57712,-35.11864 29.11206,-83.63427 40.01224,-124.9583 17.03831,-64.59452 27.83503,-124.73759 35.91607,-200.07037 0.69105,-6.44201 0.79682,-3.29448 0.43686,13 -2.35074,106.41392 -22.74112,203.94084 -59.80821,286.06195 -6.01505,13.3262 -18.82158,37.50409 -21.09238,39.82107 -0.7455,0.76066 1.29543,-5.47379 4.53542,-13.85435 z m -623.714369,1.47133 c -16.82124,-32.59327 -29.39315,-78.54014 -33.29888,-121.69821 -1.41378,-15.62226 -1.44337,-58.20379 -0.05166,-74.33545 5.53904,-64.204 20.89483,-127.06662 47.50335,-194.46634 39.057469,-98.9331 95.587319,-188.4243 166.971959,-264.3299 22.20546,-23.6118 58.50345,-55.8543 72.98012,-64.8263 l 4.94393,-3.064 -7.48195,8.3601 c -4.11508,4.5981 -9.91199,11.2851 -12.88202,14.8601 -2.97004,3.575 -15.11021,16.175 -26.97816,28 -53.7564,53.5619 -95.46959,107.9111 -133.54555,174 -9.43248,16.3721 -32.55736,62.73435 -41.89807,84 -32.897449,74.89638 -54.484539,156.48961 -58.073059,219.5 -0.31323,5.5 -0.81352,13.36561 -1.11174,17.47913 -0.29823,4.11352 -0.21071,7.1476 0.19449,6.7424 0.79329,-0.79329 3.82692,-9.41808 13.79554,-39.22153 18.68182,-55.85359 34.64874,-94.47933 59.112639,-143 12.9888,-25.76146 19.08358,-36.98628 22.74174,-41.88377 0.7739,-1.03608 -1.47591,6.83892 -4.99957,17.5 -39.350559,119.05786 -60.772619,246.25067 -62.549189,371.38377 l -0.21296,15 -5.16096,-10 z"
         id="path14521"
         inkscape:connector-curvature="0" />
      <path
         style="fill:#bbbbbb"
         d="m 48.145151,-574.8773 c -2.9689,-10.07399 -4.63639,-16.85858 -8.78099,-35.72783 -4.9111,-22.35885 -6.83559,-72.3041 -4.07562,-105.77217 5.90536,-71.60959 25.93015,-146.47529 59.91468,-224 20.509219,-46.78516 49.978659,-99.9631 73.704179,-133 26.68671,-37.1602 42.23682,-57.2915 49.04978,-63.5 l 3.29206,-3 -2.55207,4.5 c -1.40364,2.475 -5.83371,10.35 -9.84459,17.5 -4.01089,7.15 -13.67828,22.45 -21.48308,34 -27.80054,41.1408 -41.4494,64.3788 -61.37828,104.5 -22.05694,44.40547 -34.128739,72.77884 -47.104969,110.71488 -19.72493,57.66585 -30.75481,111.32966 -33.96031,165.22749 -1.12246,18.87321 -0.33693,23.21501 2.42574,13.40761 0.90634,-3.21749 2.355,-7.64998 3.21925,-9.84998 0.86425,-2.2 5.74267,-16.375 10.84095,-31.5 9.16748,-27.1971 18.91673,-53.28407 21.93844,-58.70274 l 1.55988,-2.79726 -0.60759,3 c -0.33418,1.65 -1.20775,5.475 -1.94127,8.5 -2.52303,10.40484 -10.31964,49.52647 -13.35253,67 -6.64455,38.28147 -11.7561,78.12934 -14.62355,114 -0.85734,10.725 -1.88269,23.325 -2.27855,28 l -0.71975,8.5 -3.24181,-11 z"
         id="path14519"
         inkscape:connector-curvature="0" />
      <path
         style="fill:#b1b1b1"
         d="m 38.517651,-618.62229 c -3.50177,-18.66603 -4.96354,-72.52506 -2.66671,-98.25501 5.59364,-62.66212 20.96941,-125.79263 46.51904,-191 16.49626,-42.1015 40.574069,-90.98308 63.578479,-129.0739 7.75369,-12.8386 13.95537,-22.2538 13.95537,-21.1867 0,0.3921 -2.97836,7.3611 -6.61858,15.4867 -3.64023,8.1256 -9.44926,21.5239 -12.90897,29.7739 -3.45971,8.25 -12.12279,26.925 -19.2513,41.5 -7.12851,14.575 -15.68393,32.8 -19.01205,40.5 -33.947499,78.54161 -53.118219,151.99755 -58.199129,223 -2.02726,28.3296 -0.98053,35.6592 3.37624,23.64186 1.03742,-2.86152 1.97784,-5.07656 2.08983,-4.92231 0.11198,0.15425 -1.01789,8.83045 -2.51083,19.28045 -1.49294,10.45 -3.52451,26.65 -4.5146,36 -0.99009,9.35 -2.11513,17.37111 -2.50008,17.8247 -0.38496,0.45358 -0.98648,-0.70278 -1.33671,-2.56969 z"
         id="path14517"
         inkscape:connector-curvature="0" />
    </g>
    <g
       id="g4811"
       transform="matrix(4.533332,1.2034437,-1.2034437,4.533332,-994.18514,-686.97966)"
       style="opacity:0.8">
      <g
         style="stroke:#000000;stroke-width:6.51107693;stroke-miterlimit:4;stroke-opacity:1;stroke-dasharray:none"
         id="g3169"
         transform="matrix(0.11504103,-0.03487321,0.03801272,0.10553966,246.21796,92.464396)"
         inkscape:export-filename="/home/vaps/Documents/infralogo.png"
         inkscape:export-xdpi="52.610001"
         inkscape:export-ydpi="52.610001">
        <linearGradient
           id="linearGradient6962"
           gradientUnits="userSpaceOnUse"
           x1="-6873.6479"
           y1="2774.2998"
           x2="-6636.2373"
           y2="2496.6895"
           gradientTransform="matrix(0.4345,-0.9318,-0.9318,-0.4345,6223.4761,-5052.7427)">
          <stop
             offset="0"
             style="stop-color:#F59723"
             id="stop6964" />
          <stop
             offset="0.3123"
             style="stop-color:#F69822"
             id="stop6966" />
          <stop
             offset="0.8383"
             style="stop-color:#E87726"
             id="stop6968" />
        </linearGradient>
        <path
           d="m 736.1,8.1 c -27.1,16 -72.2,61.3 -125.8,127 l 49.3,93.2 C 694.3,178.8 729.5,134.1 765,96 c 2.8,-3 4.1,-4.4 4.1,-4.4 -1.3,1.4 -2.8,3 -4.1,4.4 -11.5,12.6 -46.4,53.4 -99,134.2 50.7,-2.5 128.5,-12.9 192,-23.7 19,-105.9 -18.5,-154.3 -18.5,-154.3 0,0 -47.6,-77 -103.4,-44.1 z"
           id="path3178"
           inkscape:connector-curvature="0"
           style="fill:url(#linearGradient5134);stroke:#000000;stroke-width:6.51107693;stroke-miterlimit:4;stroke-opacity:1;stroke-dasharray:none" />
        <path
           d="m 652.5,539.9 c 0.3,-0.1 0.7,-0.1 1.1,-0.2 l -7.1,0.8 c -0.4,0.2 -0.8,0.4 -1.2,0.6 2.3,-0.5 4.8,-0.9 7.2,-1.2 z"
           id="path3180"
           inkscape:connector-curvature="0"
           style="fill:none;stroke:#000000;stroke-width:6.51107693;stroke-miterlimit:4;stroke-opacity:1;stroke-dasharray:none" />
        <path
           d="m 602,706.9 c -4,0.9 -8.1,1.6 -12.3,2.3 4.2,-0.7 8.3,-1.5 12.3,-2.3 z"
           id="path3182"
           inkscape:connector-curvature="0"
           style="fill:none;stroke:#000000;stroke-width:6.51107693;stroke-miterlimit:4;stroke-opacity:1;stroke-dasharray:none" />
        <path
           d="m 259.4,1081.4 c 0.5,-1.3 1,-2.8 1.5,-4.1 10.9,-28.7 21.7,-56.6 32.3,-83.8 11.9,-30.5 23.7,-60 35.5,-88.6 12.3,-30.1 24.5,-59.3 36.4,-87.5 12.5,-29.5 24.9,-58 37.1,-85.4 9.9,-22.3 19.6,-43.9 29.2,-64.8 3.2,-7 6.4,-13.9 9.6,-20.7 6.3,-13.6 12.5,-26.8 18.7,-39.8 5.7,-11.9 11.3,-23.6 17,-35.2 1.9,-3.8 3.7,-7.6 5.6,-11.4 0.3,-0.6 0.6,-1.2 0.9,-1.9 l -6.1,0.6 -4.8,-9.5 c -0.5,0.9 -0.9,1.9 -1.4,2.8 -8.6,17.3 -17.3,34.6 -25.8,52.1 -4.9,10.2 -9.8,20.4 -14.7,30.5 -13.5,28.3 -26.7,57 -39.8,85.6 -13.2,29.1 -26.1,58.3 -38.9,87.6 -12.4,28.8 -24.7,57.6 -36.6,86.3 -11.9,28.7 -23.6,57.3 -35,85.6 -11.9,29.6 -23.4,59 -34.6,88 -2.6,6.6 -5,13.1 -7.6,19.6 -9,23.4 -17.8,46.6 -26.3,69.4 l 7.6,15 6.8,-0.7 c 0.2,-0.7 0.5,-1.3 0.7,-2.1 11.1,-29.8 22,-59.1 32.7,-87.6 z"
           id="path3184"
           inkscape:connector-curvature="0"
           style="fill:none;stroke:#000000;stroke-width:6.51107693;stroke-miterlimit:4;stroke-opacity:1;stroke-dasharray:none" />
        <path
           d="m 586.6,709.6 0,0 0,0 0,0 z"
           id="path3186"
           inkscape:connector-curvature="0"
           style="fill:none;stroke:#000000;stroke-width:6.51107693;stroke-miterlimit:4;stroke-opacity:1;stroke-dasharray:none" />
        <path
           d="m 570.2,791 c -6.3,1.1 -12.7,2.3 -19.4,3.4 0,0 -0.1,0 -0.1,0.1 3.4,-0.5 6.7,-1 10,-1.5 3.1,-0.7 6.3,-1.3 9.5,-2 z"
           id="path3188"
           inkscape:connector-curvature="0"
           style="fill:#bd202e;stroke:#000000;stroke-width:6.51107693;stroke-miterlimit:4;stroke-opacity:1;stroke-dasharray:none" />
        <path
           enable-background="new    "
           d="m 570.2,791 c -6.3,1.1 -12.7,2.3 -19.4,3.4 0,0 -0.1,0 -0.1,0.1 3.4,-0.5 6.7,-1 10,-1.5 3.1,-0.7 6.3,-1.3 9.5,-2 z"
           id="path3190"
           inkscape:connector-curvature="0"
           style="opacity:0.35;fill:#bd202e;stroke:#000000;stroke-width:6.51107693;stroke-miterlimit:4;stroke-opacity:1;stroke-dasharray:none" />
        <path
           d="m 586.7,709.5 c 0,0 0,0.1 0,0 -0.1,0 -0.1,0 -0.1,0.1 1,-0.1 2.1,-0.3 3.1,-0.5 4.2,-0.6 8.3,-1.3 12.3,-2.3 -5,0.9 -10,1.8 -15.3,2.7 l 0,0 0,0 z"
           id="path3192"
           inkscape:connector-curvature="0"
           style="fill:#bd202e;stroke:#000000;stroke-width:6.51107693;stroke-miterlimit:4;stroke-opacity:1;stroke-dasharray:none" />
        <path
           enable-background="new    "
           d="m 586.7,709.5 c 0,0 0,0.1 0,0 -0.1,0 -0.1,0 -0.1,0.1 1,-0.1 2.1,-0.3 3.1,-0.5 4.2,-0.6 8.3,-1.3 12.3,-2.3 -5,0.9 -10,1.8 -15.3,2.7 l 0,0 0,0 z"
           id="path3194"
           inkscape:connector-curvature="0"
           style="opacity:0.35;fill:#bd202e;stroke:#000000;stroke-width:6.51107693;stroke-miterlimit:4;stroke-opacity:1;stroke-dasharray:none" />
        <linearGradient
           id="linearGradient6979"
           gradientUnits="userSpaceOnUse"
           x1="-8630.7197"
           y1="2804.9607"
           x2="-6936.9253"
           y2="2804.9607"
           gradientTransform="matrix(0.4345,-0.9318,-0.9318,-0.4345,6223.4761,-5052.7427)">
          <stop
             offset="0.3233"
             style="stop-color:#9C2063"
             id="stop6981" />
          <stop
             offset="0.6302"
             style="stop-color:#C82037"
             id="stop6983" />
          <stop
             offset="0.7514"
             style="stop-color:#CC2135"
             id="stop6985" />
          <stop
             offset="1"
             style="stop-color:#E87726"
             id="stop6987" />
        </linearGradient>
        <path
           d="m 514,469.2 c 15,-28.1 30.2,-55.5 45.5,-82.1 15.9,-27.8 32.1,-54.6 48.4,-80.6 0.9,-1.5 2,-3.1 2.9,-4.6 16.1,-25.5 32.4,-50.1 48.7,-73.5 l -49.3,-93.2 c -3.7,4.5 -7.4,9.1 -11.2,13.9 -14.3,17.8 -29,36.8 -44.2,57.1 -17.1,22.8 -34.6,47.2 -52.5,72.8 -16.4,23.6 -33.2,48.3 -50,74 -14.3,21.8 -28.5,44.2 -42.7,67.2 -0.5,0.8 -1,1.7 -1.5,2.6 l 64.3,127 C 486,522.3 500,495.4 514,469.2 z"
           id="path3205"
           inkscape:connector-curvature="0"
           style="fill:url(#linearGradient5136);stroke:#000000;stroke-width:6.51107693;stroke-miterlimit:4;stroke-opacity:1;stroke-dasharray:none" />
        <linearGradient
           id="linearGradient6990"
           gradientUnits="userSpaceOnUse"
           x1="-8426.2559"
           y1="2635.2839"
           x2="-7416.9194"
           y2="2635.2839"
           gradientTransform="matrix(0.4345,-0.9318,-0.9318,-0.4345,6223.4761,-5052.7427)">
          <stop
             offset="0"
             style="stop-color:#282661"
             id="stop6992" />
          <stop
             offset="9.548389e-02"
             style="stop-color:#662E8C"
             id="stop6994" />
          <stop
             offset="0.7882"
             style="stop-color:#9E2064"
             id="stop6996" />
          <stop
             offset="0.9487"
             style="stop-color:#CC2032"
             id="stop6998" />
        </linearGradient>
        <path
           d="m 221.2,1184.4 c -8.5,23.3 -17.1,47.2 -25.6,71.5 -0.1,0.3 -0.2,0.7 -0.4,1 -1.2,3.4 -2.5,6.9 -3.6,10.3 -5.8,16.4 -10.8,31.2 -22.3,64.7 18.9,8.6 34.1,31.4 48.5,57.2 -1.5,-26.7 -12.5,-51.8 -33.6,-71.2 93.3,4.2 173.7,-19.4 215.3,-87.6 3.7,-6.1 7.1,-12.4 10.2,-19.3 -18.9,24 -42.4,34.1 -86.5,31.7 -0.1,0 -0.2,0.1 -0.3,0.1 0.1,0 0.2,-0.1 0.3,-0.1 65,-29.1 97.5,-57 126.4,-103.2 6.8,-11 13.5,-22.9 20.3,-36.2 -56.8,58.3 -122.5,74.9 -191.8,62.3 l -52,5.7 c -1.7,4.4 -3.2,8.7 -4.9,13.1 z"
           id="path3216"
           inkscape:connector-curvature="0"
           style="fill:url(#linearGradient5138);stroke:#000000;stroke-width:6.51107693;stroke-miterlimit:4;stroke-opacity:1;stroke-dasharray:none" />
        <linearGradient
           id="linearGradient7001"
           gradientUnits="userSpaceOnUse"
           x1="-8535.5879"
           y1="2820.8604"
           x2="-6841.793"
           y2="2820.8604"
           gradientTransform="matrix(0.4345,-0.9318,-0.9318,-0.4345,6223.4761,-5052.7427)">
          <stop
             offset="0.3233"
             style="stop-color:#9C2063"
             id="stop7003" />
          <stop
             offset="0.6302"
             style="stop-color:#C82037"
             id="stop7005" />
          <stop
             offset="0.7514"
             style="stop-color:#CC2135"
             id="stop7007" />
          <stop
             offset="1"
             style="stop-color:#E87726"
             id="stop7009" />
        </linearGradient>
        <path
           d="m 245.5,1068.1 c 11.2,-29 22.8,-58.4 34.6,-88 11.4,-28.4 23,-57 35,-85.6 12,-28.6 24.2,-57.5 36.6,-86.3 12.6,-29.3 25.6,-58.5 38.9,-87.6 13.1,-28.8 26.3,-57.4 39.8,-85.6 4.8,-10.2 9.8,-20.4 14.7,-30.5 8.5,-17.5 17.1,-34.9 25.8,-52.1 0.5,-0.9 0.9,-1.9 1.4,-2.8 L 408,422.6 c -1,1.7 -2.1,3.5 -3.2,5.1 -15,24.5 -29.9,49.5 -44.5,75 -14.8,25.8 -29.3,52.1 -43.5,78.8 -11.9,22.5 -23.6,45.1 -35.1,68.1 -2.3,4.6 -4.5,9.3 -6.8,13.9 -14,28.9 -26.6,56.6 -38.1,83.5 -13,30.3 -24.4,59.3 -34.3,86.8 -6.6,18.1 -12.5,35.5 -18,52.3 -4.5,14.3 -8.7,28.7 -12.9,43 -9.6,33.6 -17.9,67.2 -24.7,100.6 l 64.6,127.5 c 8.5,-22.8 17.3,-46 26.3,-69.4 2.7,-6.7 5.1,-13.3 7.7,-19.7 z"
           id="path3227"
           inkscape:connector-curvature="0"
           style="fill:url(#linearGradient5140);stroke:#000000;stroke-width:6.51107693;stroke-miterlimit:4;stroke-opacity:1;stroke-dasharray:none" />
        <linearGradient
           id="linearGradient7012"
           gradientUnits="userSpaceOnUse"
           x1="-8412.0576"
           y1="2797.8789"
           x2="-7521.9175"
           y2="2797.8789"
           gradientTransform="matrix(0.4345,-0.9318,-0.9318,-0.4345,6223.4761,-5052.7427)">
          <stop
             offset="0"
             style="stop-color:#282661"
             id="stop7014" />
          <stop
             offset="9.548389e-02"
             style="stop-color:#662E8C"
             id="stop7016" />
          <stop
             offset="0.7882"
             style="stop-color:#9E2064"
             id="stop7018" />
          <stop
             offset="0.9487"
             style="stop-color:#CC2032"
             id="stop7020" />
        </linearGradient>
        <path
           d="m 146.2,1034 c -8.1,40.8 -13.9,81.4 -16.8,121.8 -0.1,1.4 -0.2,2.8 -0.3,4.2 -20.2,-32.3 -74.1,-63.8 -74,-63.5 38.7,56 68,111.6 72.3,166.2 -20.7,4.2 -49,-1.9 -81.7,-13.9 34.1,31.4 59.7,40 69.8,42.4 -31.4,2 -64,23.5 -96.9,48.3 48.1,-19.6 87,-27.4 114.8,-21.1 -44.2,125 -88.4,263 -132.7,409.6 13.6,-4 21.7,-13.2 26.2,-25.5 7.9,-26.5 60.2,-200.7 142.3,-429.4 2.4,-6.5 4.7,-13.1 7.1,-19.6 0.6,-1.9 1.3,-3.7 2,-5.4 8.6,-24 17.7,-48.5 26.9,-73.5 2.1,-5.7 4.2,-11.4 6.4,-17.1 0,-0.1 0.1,-0.2 0.1,-0.3 L 147,1029.7 c -0.2,1.3 -0.5,2.8 -0.8,4.3 z"
           id="path3238"
           inkscape:connector-curvature="0"
           style="fill:url(#linearGradient5142);stroke:#000000;stroke-width:6.51107693;stroke-miterlimit:4;stroke-opacity:1;stroke-dasharray:none" />
        <linearGradient
           id="linearGradient7023"
           gradientUnits="userSpaceOnUse"
           x1="-8535.5879"
           y1="2645.4897"
           x2="-6841.793"
           y2="2645.4897"
           gradientTransform="matrix(0.4345,-0.9318,-0.9318,-0.4345,6223.4761,-5052.7427)">
          <stop
             offset="0.3233"
             style="stop-color:#9C2063"
             id="stop7025" />
          <stop
             offset="0.6302"
             style="stop-color:#C82037"
             id="stop7027" />
          <stop
             offset="0.7514"
             style="stop-color:#CC2135"
             id="stop7029" />
          <stop
             offset="1"
             style="stop-color:#E87726"
             id="stop7031" />
        </linearGradient>
        <path
           sodipodi:nodetypes="scccccccccccccccccccscccccccccccccccccccccccccccccccccccs"
           d="m 482.3,560.2 c -1.9,3.8 -3.7,7.6 -5.6,11.4 -5.6,11.5 -11.2,23.2 -17,35.2 -6.2,13 -12.4,26.2 -18.7,39.8 -3.2,6.8 -6.4,13.7 -9.6,20.7 -9.6,20.9 -19.3,42.5 -29.2,64.8 -12.1,27.3 -24.6,55.8 -37.1,85.4 -11.9,28.2 -24.2,57.3 -36.4,87.5 -11.7,28.6 -23.5,58.2 -35.5,88.6 -10.7,27.1 -21.5,55.1 -32.3,83.8 -0.5,1.3 -1,2.8 -1.5,4.1 -10.8,28.5 -21.7,57.8 -32.6,87.8 -0.2,0.7 -0.5,1.3 -0.7,2.1 l 52,-5.7 c -1,-0.2 -2.1,-0.3 -3.1,-0.5 62.1,-7.7 144.8,-54.2 198.1,-111.5 24.6,-26.4 46.9,-57.6 67.5,-94.1 15.3,-27.1 29.8,-57.3 43.6,-90.6 12,-29.1 23.5,-60.7 34.6,-94.8 -14.3,7.5 -30.6,13.1 -48.6,16.9 -3.2,0.7 -6.4,1.3 -9.7,1.9 -3.3,0.6 -6.6,1.1 -10,1.5 l 0,0 0,0 c 0,0 0.1,0 0.1,-0.1 58,-22.3 94.5,-65.3 121,-118 -15.2,10.4 -40,24 -69.7,30.5 -4,0.9 -8.1,1.6 -12.3,2.3 -1,0.1 -2.1,0.3 -3.1,0.5 l 0,0 0,0 0.1,0 c 0,0 0,0 0.1,0 l 0,0 c 20.2,-8.4 37.1,-17.9 51.8,-29 3.2,-2.4 6.3,-4.8 9.1,-7.4 4.5,-3.9 8.7,-8 12.9,-12.2 2.6,-2.8 5.1,-5.6 7.6,-8.5 5.8,-6.9 11.2,-14.3 16.2,-22.3 1.5,-2.5 3.1,-4.9 4.5,-7.5 2,-3.7 3.8,-7.4 5.6,-10.9 8.1,-16.2 14.6,-30.8 19.7,-43.5 2.6,-6.4 4.8,-12.2 6.8,-17.8 0.8,-2.2 1.5,-4.3 2.2,-6.4 2.1,-6.1 3.7,-11.5 5,-16.3 2,-7.2 3.2,-12.9 3.8,-17 l 0,0 0,0 c -2,1.5 -4.2,3.1 -6.8,4.6 -17.5,10.5 -47.5,19.9 -71.7,24.4 l 36.42522,-7.90518 -47.7,5.2 c -0.3,0.1 10.57478,2.80518 10.17478,2.90518 -2.5,0.4 -4.8,0.8 -7.3,1.1 0.4,-0.2 0.8,-0.4 1.2,-0.6 l -163.3,17.9 c 0,0.4 -0.3,1.1 -0.6,1.7 z"
           id="path3249"
           inkscape:connector-curvature="0"
           style="fill:url(#linearGradient5144);stroke:#000000;stroke-width:6.51107693;stroke-miterlimit:4;stroke-opacity:1;stroke-dasharray:none" />
        <linearGradient
           id="linearGradient7034"
           gradientUnits="userSpaceOnUse"
           x1="-8640.6592"
           y1="2654.2649"
           x2="-6946.8647"
           y2="2654.2649"
           gradientTransform="matrix(0.4345,-0.9318,-0.9318,-0.4345,6223.4761,-5052.7427)">
          <stop
             offset="0.3233"
             style="stop-color:#9C2063"
             id="stop7036" />
          <stop
             offset="0.6302"
             style="stop-color:#C82037"
             id="stop7038" />
          <stop
             offset="0.7514"
             style="stop-color:#CC2135"
             id="stop7040" />
          <stop
             offset="1"
             style="stop-color:#E87726"
             id="stop7042" />
        </linearGradient>
        <path
           sodipodi:nodetypes="cccccccccccccc"
           d="m 666.1,230.2 c -14.5,22.3 -30.3,47.6 -47.5,76.3 -0.9,1.4 -1.9,3.1 -2.7,4.5 -14.7,24.8 -30.3,52 -46.9,81.9 -14.2,25.8 -29,53.4 -44.4,83.1 -13.4,25.9 -27.2,53.4 -41.5,82.5 L 645.79209,542.43977 C 693.39209,520.53977 715.2,499 735.8,470.3 c 5.4,-7.9 11,-16.1 16.4,-24.7 16.8,-26.2 33.2,-55 47.9,-83.7 14.2,-27.7 26.7,-55.1 36.3,-79.9 6.1,-15.7 11,-30.3 14.4,-43.2 3,-11.3 5.3,-22.1 7.1,-32.4 -63.3,10.9 -141.2,21.3 -191.8,23.8 z"
           id="path3260"
           inkscape:connector-curvature="0"
           style="fill:url(#linearGradient5146);stroke:#000000;stroke-width:6.51107693;stroke-miterlimit:4;stroke-opacity:1;stroke-dasharray:none" />
        <path
           d="m 560.5,792.8 c -3.3,0.6 -6.6,1.1 -10,1.5 l 0,0 c 3.4,-0.3 6.8,-0.9 10,-1.5 z"
           id="path3262-7"
           inkscape:connector-curvature="0"
           style="fill:#bd202e;stroke:#000000;stroke-width:6.51107693;stroke-miterlimit:4;stroke-opacity:1;stroke-dasharray:none" />
        <path
           enable-background="new    "
           d="m 560.5,792.8 c -3.3,0.6 -6.6,1.1 -10,1.5 l 0,0 c 3.4,-0.3 6.8,-0.9 10,-1.5 z"
           id="path3264"
           inkscape:connector-curvature="0"
           style="opacity:0.35;fill:#bd202e;stroke:#000000;stroke-width:6.51107693;stroke-miterlimit:4;stroke-opacity:1;stroke-dasharray:none" />
        <linearGradient
           id="linearGradient7047"
           gradientUnits="userSpaceOnUse"
           x1="-8535.5889"
           y1="2593.446"
           x2="-6841.7925"
           y2="2593.446"
           gradientTransform="matrix(0.4345,-0.9318,-0.9318,-0.4345,6223.4761,-5052.7427)">
          <stop
             offset="0.3233"
             style="stop-color:#9C2063"
             id="stop7049" />
          <stop
             offset="0.6302"
             style="stop-color:#C82037"
             id="stop7051" />
          <stop
             offset="0.7514"
             style="stop-color:#CC2135"
             id="stop7053" />
          <stop
             offset="1"
             style="stop-color:#E87726"
             id="stop7055" />
        </linearGradient>
        <path
           d="m 560.5,792.8 c -3.3,0.6 -6.6,1.1 -10,1.5 l 0,0 c 3.4,-0.3 6.8,-0.9 10,-1.5 z"
           id="path3275"
           inkscape:connector-curvature="0"
           style="fill:url(#linearGradient5148);stroke:#000000;stroke-width:6.51107693;stroke-miterlimit:4;stroke-opacity:1;stroke-dasharray:none" />
        <path
           d="m 586.6,709.6 c 1,-0.1 2.1,-0.3 3.1,-0.5 -1,0.1 -2,0.4 -3.1,0.5 l 0,0 z"
           id="path3277"
           inkscape:connector-curvature="0"
           style="fill:#bd202e;stroke:#000000;stroke-width:6.51107693;stroke-miterlimit:4;stroke-opacity:1;stroke-dasharray:none" />
        <path
           enable-background="new    "
           d="m 586.6,709.6 c 1,-0.1 2.1,-0.3 3.1,-0.5 -1,0.1 -2,0.4 -3.1,0.5 l 0,0 z"
           id="path3279"
           inkscape:connector-curvature="0"
           style="opacity:0.35;fill:#bd202e;stroke:#000000;stroke-width:6.51107693;stroke-miterlimit:4;stroke-opacity:1;stroke-dasharray:none" />
        <linearGradient
           id="linearGradient7060"
           gradientUnits="userSpaceOnUse"
           x1="-8535.5889"
           y1="2599.3242"
           x2="-6841.7925"
           y2="2599.3242"
           gradientTransform="matrix(0.4345,-0.9318,-0.9318,-0.4345,6223.4761,-5052.7427)">
          <stop
             offset="0.3233"
             style="stop-color:#9C2063"
             id="stop7062" />
          <stop
             offset="0.6302"
             style="stop-color:#C82037"
             id="stop7064" />
          <stop
             offset="0.7514"
             style="stop-color:#CC2135"
             id="stop7066" />
          <stop
             offset="1"
             style="stop-color:#E87726"
             id="stop7068" />
        </linearGradient>
        <path
           d="m 586.6,709.6 c 1,-0.1 2.1,-0.3 3.1,-0.5 -1,0.1 -2,0.4 -3.1,0.5 l 0,0 z"
           id="path3290-2"
           inkscape:connector-curvature="0"
           style="fill:url(#linearGradient5150);stroke:#000000;stroke-width:6.51107693;stroke-miterlimit:4;stroke-opacity:1;stroke-dasharray:none" />
        <path
           d="m 586.6,709.6 c 0.1,0 0.1,-0.1 0,0 l 0,0 0,0 0,0 c 0.1,-0.1 0.1,0 0,0 z"
           id="path3292-4"
           inkscape:connector-curvature="0"
           style="fill:#bd202e;stroke:#000000;stroke-width:6.51107693;stroke-miterlimit:4;stroke-opacity:1;stroke-dasharray:none" />
        <path
           enable-background="new    "
           d="m 586.6,709.6 c 0.1,0 0.1,-0.1 0,0 l 0,0 0,0 0,0 c 0.1,-0.1 0.1,0 0,0 z"
           id="path3294-5"
           inkscape:connector-curvature="0"
           style="opacity:0.35;fill:#bd202e;stroke:#000000;stroke-width:6.51107693;stroke-miterlimit:4;stroke-opacity:1;stroke-dasharray:none" />
        <linearGradient
           id="linearGradient7073"
           gradientUnits="userSpaceOnUse"
           x1="-7584.0386"
           y1="2600.5515"
           x2="-7209.6543"
           y2="2600.5515"
           gradientTransform="matrix(0.4345,-0.9318,-0.9318,-0.4345,6223.4761,-5052.7427)">
          <stop
             offset="0.3233"
             style="stop-color:#9C2063"
             id="stop7075" />
          <stop
             offset="0.6302"
             style="stop-color:#C82037"
             id="stop7077" />
          <stop
             offset="0.7514"
             style="stop-color:#CC2135"
             id="stop7079" />
          <stop
             offset="1"
             style="stop-color:#E87726"
             id="stop7081" />
        </linearGradient>
        <path
           d="m 586.6,709.6 c 0.1,0 0.1,-0.1 0,0 l 0,0 0,0 0,0 c 0.1,-0.1 0.1,0 0,0 z"
           id="path3305"
           inkscape:connector-curvature="0"
           style="fill:url(#linearGradient5152);stroke:#000000;stroke-width:6.51107693;stroke-miterlimit:4;stroke-opacity:1;stroke-dasharray:none" />
      </g>
    </g>
    <text
       xml:space="preserve"
       style="font-size:368.20935059px;font-style:normal;font-weight:normal;line-height:125%;letter-spacing:0px;word-spacing:0px;fill:#000000;fill-opacity:1;stroke:none;font-family:Sans"
       x="760.77582"
       y="330.08286"
       id="text5298"
       sodipodi:linespacing="125%"><tspan
         sodipodi:role="line"
         x="760.77582"
         y="330.08286"
         id="tspan5302"
         style="font-style:normal;font-variant:normal;font-weight:bold;font-stretch:normal;font-family:Sans;-inkscape-font-specification:Sans Bold">Apache</tspan></text>
    <path
       sodipodi:type="arc"
       style="opacity:1;fill:#ffffff;fill-opacity:0;fill-rule:nonzero;stroke:none"
       id="path14582"
       sodipodi:cx="259.09219"
       sodipodi:cy="602.55432"
       sodipodi:rx="344.39005"
       sodipodi:ry="574.69421"
       d="m 603.48224,602.55432 a 344.39005,574.69421 0 1 1 -688.780092,0 344.39005,574.69421 0 1 1 688.780092,0 z"
       transform="translate(-140.38733,-93.233293)" />
    <g
       id="incubator_text"
       transform="matrix(15.333488,0,0,15.333488,-699.24079,63.002071)">
      <g
         transform="matrix(1.10418,0,0,1.10418,2.89018,-20.598497)"
         id="g15856">
        <path
           inkscape:connector-curvature="0"
           transform="translate(-76.4701,-191.76493)"
           d="m 166.732,239.981 0,18.019 -6.771,0 0,-18.019 z m -3.348,-8.029 c 0.917,0 1.71,0.322 2.38,0.967 0.67,0.645 1.005,1.408 1.005,2.288 0,0.941 -0.317,1.713 -0.95,2.316 -0.634,0.603 -1.446,0.904 -2.435,0.904 -0.99,0 -1.802,-0.301 -2.436,-0.904 -0.633,-0.603 -0.95,-1.375 -0.95,-2.316 0,-0.88 0.335,-1.643 1.005,-2.288 0.67,-0.645 1.463,-0.967 2.381,-0.967 z"
           id="path15858" />
        <path
           inkscape:connector-curvature="0"
           transform="translate(-76.4701,-191.76493)"
           d="m 186.749,258 -6.771,0 0,-10.176 c 0,-1.035 -0.422,-1.553 -1.267,-1.553 -0.833,0 -1.249,0.518 -1.249,1.553 l 0,10.176 -6.771,0 0,-10.049 c 0,-2.347 0.777,-4.323 2.33,-5.93 1.554,-1.607 3.456,-2.41 5.708,-2.41 2.577,0 4.642,0.933 6.195,2.798 1.217,1.457 1.825,3.485 1.825,6.084 z"
           id="path15860" />
        <path
           inkscape:connector-curvature="0"
           transform="translate(-76.4701,-191.76493)"
           d="m 201.773,249.704 6.703,-0.253 c -0.193,2.6 -1.163,4.736 -2.908,6.409 -1.746,1.673 -3.872,2.51 -6.376,2.51 -2.649,0 -4.886,-0.921 -6.71,-2.762 -1.824,-1.842 -2.736,-4.099 -2.736,-6.771 0,-2.54 0.921,-4.712 2.763,-6.518 1.843,-1.805 4.052,-2.708 6.629,-2.708 2.252,0 4.239,0.71 5.96,2.13 1.722,1.42 2.794,3.231 3.215,5.433 l -6.847,0.253 c -0.59,-0.771 -1.336,-1.156 -2.239,-1.156 -0.77,0 -1.402,0.253 -1.896,0.759 -0.493,0.506 -0.74,1.144 -0.74,1.915 0,0.783 0.262,1.44 0.785,1.97 0.524,0.53 1.177,0.795 1.959,0.795 1.144,0 1.956,-0.669 2.438,-2.006 z"
           id="path15862" />
        <path
           inkscape:connector-curvature="0"
           transform="translate(-76.4701,-191.76493)"
           d="m 211.428,240.24 6.771,0 0,10.172 c 0,1.038 0.422,1.557 1.267,1.557 0.833,0 1.249,-0.519 1.249,-1.557 l 0,-10.172 6.771,0 0,10.046 c 0,2.34 -0.777,4.316 -2.33,5.927 -1.554,1.611 -3.456,2.416 -5.708,2.416 -2.565,0 -4.63,-0.935 -6.195,-2.805 -1.217,-1.46 -1.825,-3.486 -1.825,-6.08 z"
           id="path15864" />
        <path
           inkscape:connector-curvature="0"
           transform="translate(-76.4701,-191.76493)"
           d="m 237.809,233.321 0,14.775 c 0,2.409 0.86,3.614 2.581,3.614 0.735,0 1.357,-0.251 1.869,-0.752 0.511,-0.501 0.767,-1.107 0.767,-1.82 0,-0.737 -0.24,-1.355 -0.721,-1.856 -0.481,-0.501 -1.069,-0.752 -1.766,-0.752 -0.493,0 -1.057,0.215 -1.694,0.644 l 0,-7.447 c 0.795,-0.077 1.398,-0.116 1.808,-0.116 2.542,0 4.721,0.917 6.534,2.75 1.814,1.833 2.721,4.039 2.721,6.62 0,2.642 -0.923,4.867 -2.768,6.676 -1.845,1.809 -4.113,2.713 -6.803,2.713 -1.351,0 -2.668,-0.295 -3.953,-0.886 -1.284,-0.591 -2.343,-1.387 -3.175,-2.388 -1.447,-1.737 -2.171,-3.986 -2.171,-6.747 l 0,-15.028 z"
           id="path15866" />
        <path
           inkscape:connector-curvature="0"
           transform="translate(-76.4701,-191.76493)"
           d="m 262.895,251.24 0,6.995 c -0.553,0.09 -1.059,0.135 -1.516,0.135 -2.706,0 -4.962,-0.892 -6.766,-2.675 -1.805,-1.783 -2.707,-4.018 -2.707,-6.704 0,-2.615 0.912,-4.832 2.735,-6.651 1.824,-1.819 4.042,-2.729 6.654,-2.729 2.913,0 5.209,0.853 6.888,2.56 1.679,1.706 2.519,4.037 2.519,6.991 l 0,8.838 -6.771,0 0,-8.35 c 0,-0.95 -0.23,-1.707 -0.69,-2.272 -0.46,-0.565 -1.078,-0.848 -1.855,-0.848 -0.704,0 -1.314,0.259 -1.827,0.776 -0.514,0.518 -0.771,1.131 -0.771,1.841 0,0.746 0.233,1.36 0.7,1.841 0.466,0.481 1.058,0.722 1.775,0.722 0.586,0 1.13,-0.157 1.632,-0.47 z"
           id="path15868" />
        <path
           inkscape:connector-curvature="0"
           transform="translate(-76.4701,-191.76493)"
           d="m 280.655,233.321 0,6.919 3.034,0 0,7.141 -3.034,0 c 0,1.433 0.225,2.42 0.674,2.962 0.449,0.542 1.273,0.813 2.471,0.813 l 0,7.097 c -0.349,0.004 -0.608,0.006 -0.776,0.006 -1.53,0 -2.972,-0.355 -4.327,-1.064 -1.354,-0.71 -2.441,-1.672 -3.26,-2.886 -1.035,-1.552 -1.553,-3.608 -1.553,-6.169 l 0,-14.819 z"
           id="path15870" />
        <path
           inkscape:connector-curvature="0"
           transform="translate(-76.4701,-191.76493)"
           d="m 295.534,239.611 c 2.558,0 4.75,0.919 6.578,2.756 1.827,1.837 2.741,4.039 2.741,6.606 0,2.602 -0.926,4.819 -2.778,6.65 -1.851,1.831 -4.086,2.747 -6.703,2.747 -2.618,0 -4.856,-0.919 -6.713,-2.756 -1.858,-1.837 -2.787,-4.051 -2.787,-6.641 0,-2.639 0.929,-4.859 2.787,-6.66 1.857,-1.801 4.149,-2.702 6.875,-2.702 z m -0.181,6.66 c -0.722,0 -1.335,0.263 -1.841,0.789 -0.505,0.525 -0.758,1.169 -0.758,1.931 0,0.749 0.256,1.389 0.767,1.921 0.512,0.532 1.122,0.798 1.832,0.798 0.723,0 1.339,-0.266 1.851,-0.798 0.511,-0.532 0.767,-1.172 0.767,-1.921 0,-0.762 -0.253,-1.406 -0.758,-1.931 -0.506,-0.526 -1.126,-0.789 -1.86,-0.789 z"
           id="path15872" />
        <path
           inkscape:connector-curvature="0"
           transform="translate(-76.4701,-191.76493)"
           d="m 317.544,239.799 0,7.231 c -0.467,-0.259 -0.892,-0.389 -1.275,-0.389 -1.222,0 -1.833,0.937 -1.833,2.81 l 0,8.549 -6.771,0 0,-9.85 c 0,-2.6 0.71,-4.673 2.131,-6.219 1.421,-1.547 3.317,-2.32 5.689,-2.32 0.53,0 1.216,0.063 2.059,0.188 z"
           id="path15874" />
      </g>
    </g>
  </g>
</svg>
